<svg id="Graphic_elements" data-name="Graphic elements" xmlns="http://www.w3.org/2000/svg" viewBox="0 0 1200 1200"><defs><style>.cls-1{fill:#231f20;}.cls-2{fill:#fcd7a8;}.cls-3{fill:#b75225;}.cls-4{fill:none;}.cls-5{fill:#fff;}.cls-6{fill:#fffbb2;}.cls-7{fill:#fddd04;}.cls-8{fill:#874231;}</style></defs><g id="Layer_1" data-name="Layer 1"><path class="cls-1" d="M1150,428.24c-8.84-16.9-25-33.64-45.27-36.59,6.36-4.95,16.13-3.4,23.56-3.71-.15-1.71.63-4.49-1.23-5-14.88-5.73-30.55-13.63-48.37-8.67l-.62-1.25c8.37-4.34,17.83-9.61,27.28-7.43l.63-3.73c.15-2.63-3-2.94-4.35-4.34-18.29-1.39-38-2.63-55.8-1.24a118.49,118.49,0,0,1,12.4-6.2c2.79-2.32,11.16,2.64,9.3-4.34-1.24-3.09-6-2.94-7.44-3.72-23.09-.15-44.18,4.5-65.73,8.06-16.89,5.12-30.54,18.14-45.88,27.29-5.9-.31-11.17,7.28-17.37,11.16L911.28,391c2.93-3.57,9.29-5.59,12.4-9.93-2-11.47-14.27-4.64-22.95-7.43,2.94-2.79,10.39-4.65,8.07-10.54-7.45-9.15-23.88-3.26-34.73-5,7.29-3.72,14.41-7.75,22.32-9.92v-4.34c-6.35-4.18-14.11-4.8-22.32-4.34l-.62-1.24c6.2-4.19,15.5-3.87,19.84-9.92-7.75-8.06-21.08-5-31.62-7.44,6.51-2.94,12.56-7.29,19.22-9.93v-3.71c-10.38-6.05-23.26-6.36-36-6.82,8.52-4.81,16.58-10.39,25.42-14.26V281.9c-11.32-10.54-30.39-.61-45.88-4.34l9.29-7.43c4.81-5.12,11.17-4.81,14.89-9.93-5.43-7.59-17.83-6-27.91-6.2-6.2-.93-12.4,1.86-17.35,0l14.87-12.4c4-6.36,20.93-4.49,13.64-14.26-13.33,2.17-29.76.62-43.4,3.72-7.28,2-14.73,5.58-21.7,6.82,4.18-3.57,5.73-5.43,9.92-8.68,4.8-4.65,12.71-5.58,15.5-11.16-.78-4.81-6.2-1.08-8.68-3.1-23.4,1.08-44.64,9.45-65.73,14.26,3-5.74,13-4.65,12.4-12.4-1.39-4.5-7.75-1.86-10.54-2.48C690.84,225,662,238.35,638.44,259l-.61-.62,6.81-7.44c2.33-4.64-3.56-6.51-6.81-5.58-3.73.62-7.14,3.88-10.55,3.1,1.09-.62.47-2,.62-3.1,5.59-5.42,6.52-13.8,11.79-19.84,3.25-6.2,9.76-11.16,11.77-18-7.43-9-15.5,3.41-22.94,3.1,9.31-16.28,18.45-30.39,31.63-44v-3.11c-3.72-.15-7.44-2.32-11.17-.62-11,6.2-23.4,7.91-32.23,14.88,8.83-17.35,17-31.16,31-45.26L645.89,130c-15.51.31-25.43,16-39.07,18.6v-1.86c11.78-12.56,18.6-25,32.87-35.34,1.08-1.24.93-4.19-1.25-4.34-13.49.93-25.57,5.11-37.2,10.54-6.51,3.1-14,8.22-20.46,10.54,8.52-15.66,19.53-31.47,33.48-42.16-.31-1.55.77-3.57-1.24-4.34-19.07,2.48-33.48,18.75-49.6,25.42,2.79-13.65,20.15-22.17,24.8-34.73L587,71.08c-25.58,14.57-53.32,24-73.79,47.13-.62,2-4,1.4-5.58.62,4.34-8.53,10.08-16.44,13-25.43-6.51-6.82-9.14,4.5-14.88,5.59-5.11,11-22.48,10.85-24.19,23.56-15.65,12.87-24.95,32.71-30.37,52.09-17.21,5.11-16.13,25.88-29.77,34.1-6.66,7.44.77,19.06-8.68,24.8-11.32,7.75,1.7,25-8.68,32.87-5.11,9.61-1.71,22.78,4.34,29.76.93,16.43-4.81,31.62-16.74,40.92-17.36,7.45-16.9-19.37-34.73-16.12-5.73.77-11.78,3.56-14.88,8.06-7.75,11.94-14.72,30.54-5.58,44.65,3.26,9.77,13.64,15.65,22.94,17.36-11.77,15.35-17,33.48-24.18,50.84-11.16,30.38-17.67,65.88-11.16,100.45,11.78,10.54,28.68,10.86,44.65,9.31,35.5-2.79,56.26-35.2,67-65.73-.77,20.62-7,40.46-16.12,58.28-12.71,23.56-35.19,38.3-62,40.93-8.38-6.82-23.1-8.06-33.49-3.72-9.77,5.89-19.53,14.88-19.84,27.9.62,6.51,2.95,13,7.44,17.37,13.33,6.2,28.21-.32,39.06-5.59-6.36,3.57,1.71,9-.62,12.4-19.37-1.08-36,9.77-54.56,5,.77-29,0-55.8-5.58-83.71-5.43-19.53.15-46.5-19.22-57.66-14.26-2.48-28.07-8.06-42.17-3.72,6.35-26.66,20-50.38,32.86-74.41,12.4-25.11,37.83-43.87,42.79-73.17.31-7.44-4.5-13.33-9.92-18-7.91-3.87-17.67-3.26-26.05-.62C206,351,177.11,419.25,156.65,477.23c-12.71-6.51-28.52-5.58-44-5.58-10.07.46-12.24,9.61-18,16.12C79.76,516,68.45,546.83,63,579.54c-11.78,22.32-10.54,50.07-13,76.27,1.7,15.5-2,33.79,8.06,45.26,7.29,2.17,16.43,1.55,22.94-1.86,12.09-14.73,11.94-36.74,19.22-54.57,11.94-16.89,14.27-45.11,39.07-47.74v5.58c-13.18,8.06-27.13,16.9-27.28,34.11-.78,9.29,7.44,13.95,14.26,18-12.4,7-24.19,19.69-25.42,34.11-.63,7.91-.16,16.74,6.82,22.32,4,4.5,11.78,4.5,17.36,5-3.1,6-7.13,11-9.3,18-5,10.69.31,22.31,7.44,29.76,7.9,2.94,16.43.16,23.56-2.48L148,769.9c4.34,5.58,13.49,10.07,22.32,9.92,14.27-4.34,25.27-14.88,31-29.14,3.72-.93,5.73,2,8.68,3.1,29.76.31,49.91-23.41,60.14-47.13,42.79,30.54,91.78,53.17,147.58,57.67,7,.77,15-.46,19.84-5.58,2.33-5.9-3.72-8.69-6.82-11.78,2.33-2.33,3.72-.78,6.82-1.25,10.23,6.83,25.42,1.56,35.34,9.31l-4.95,13.64c-3.41,5.58,1.08,9.76,5.57,13,5.43,2.79,5.28-5.74,9.31-4.34v1.24c-5,5.58-3.57,18.91-15.5,15.5-55.19-2-108-3.87-166.8-3.1-80.92-7.75-163.54-.62-241.83-3.72-1.7,2.33.31,3.1,1.86,5,1.09,49.76,5.11,98.44,6.2,148.19l1.86,5C77.9,941.5,88.14,940,99,939.8c112.54-7,228-.78,338.55,4.34l1.25,2.48,16.74-.62c-2.33,11.47-2.95,23.56-4.34,35.34-1.25,57.2,21.39,110.37,70.06,137.65,22.79,11.63,54.57,14.26,77.51,1.25,9.61-10.86,20-24.19,15.5-39.69,1.08-2.32,3.72-.77,5.58-1.24,23.26-9.61,48.68-22.94,58.29-48.36,2.94-17.83,1.55-38-14.26-48.37,0-10.23.92-23.87-5.58-32.86,77.82,5.43,155.64,14.72,230,30.38,68.67,17.67,140.91,27,202.77,61.39,0,2-.47,4.49,1.85,5.58a6.25,6.25,0,0,0,5.58-1.86c-2.32-20.62-2.94-41.86-5-62.63L1093,833.77c2-22.33,3.88-44.65,3.1-68.21-2.32-7.75,2.64-18.45-4.34-24.19-29.92,1.4-60,4.81-89.91,4.34,2.49-3.09-.46-10.69,6.2-9.92,1.24-4.8-2-9.3-2.48-14.25,1.25-1.71,2.48.46,3.72.61,3.11,1.87,9.61,4.66,11.79,0-2.33-9.76-17.37-13.33-19.85-22.32,2.79,1.7,6.52,1.24,9.31,3.1,6.35-.46,13.48,9.15,18,1.24-7.76-9.15-21.7-15.81-27.91-27.28,3.41.47,8.68,1.7,12.41,1.24,2.16-3.1-1.09-4.34-2.48-6.2,4.18-11.17-12.72-18.45-13.65-29.14l58.91-78.13h3.1l-1.24,5.58a5.28,5.28,0,0,0,4.34,4.34c9.14-9.46,18.45-20,26.66-30.39h2.49a9.05,9.05,0,0,0,3.71,11.16l7.44-8.06c2.18.31,3.73-.15,3.73-2.48,11.77-7.9,12.86-23.56,19.22-35.34,2.17-9.77.61-21.24,4.34-30.38-1.4,8.21,7.9,10.23,10.54,16.74,1.7,1.71,1.7-.47,3.1-1.24-4.65-10.23-1.86-23.56,0-34.1a57.18,57.18,0,0,0-5-33.49c3.42,2,7.45,3.1,11.17,4.35ZM74.8,562.8c5.27-20.93,22.48-36.74,37.21-52.09,7,6.05,11.78,15,13.64,24.19C107.05,540.33,87.67,550.09,74.8,562.8ZM534.27,1070c-7.29-6.82-9.15-17.83-8.07-27.9,10.24,12.87,21.86,25,37.21,30.38C556.43,1075.28,541.86,1075.74,534.27,1070ZM582,959.64l5-8.68c4.65.77,8.37-1.4,13-.62C595.19,955,589.45,962.43,582,959.64ZM692.39,763.7c-5.27-3.57-11.78-3-16.13-6.82l-17.35-.63c-13.8,1.09-25,11-31.63,22.33a36.67,36.67,0,0,0-3.72,14.26l-13,1.24c.15-8.53,8.21-16.59,9.3-26-3.41-1.09-6.2-1.24-9.3.62l-1.24,1.24c7.91-21.39,18.45-41.7,29.14-62-2-5.73-7-1.09-10.54-.62l-2.48,2.48c3.26-10.38,10.39-21.85,15.5-32.86,7.29,3,14.11,12.24,20.46,16.12,18,10.54,39.07,13.49,59.53,18C708.2,727.27,698,744,692.39,763.7ZM1124.5,417.26c-1.24,5.58,4.65,7,6.82,10.54,5.43,10.39,2.64,20.31,2.49,32.24-2-2.32-3.88-6.66-8.69-5-5.73,26.2-2.59,70.82-23.27,82.88,2.33-14.58,11.65-36.37,10.25-53.11-1.55-.16.07,2-1.63,4-5.74,14.27-13.41,23.58-20.07,37.53a126.28,126.28,0,0,1-19.23,24.8c-2.16-9.29,9.62-20,1.86-28.52-8.52,1.86-9,13-13.63,18.6-18.14,35.81-48.68,59.84-71.32,93.63,1.86,12.25,7.61,23.09,14.27,31.63-5.89.93-14-10.24-16.75,0l1.25,5,16.74,17.37c-6.2-3.57-14.88-3.26-21.08-5h-1.24c-5,7.75,5.88,8.37,7.44,13l8.68,9.92c-5.89,8.22,9.61,20.62-3.72,23.56a19.44,19.44,0,0,0-5.59,8.68c-5-7.75-7.13-16.74-14.88-21.7-9-.46-20.15-4.8-27.9,1.24l-10.53,10.54c-4.2-6.36-10.24-11.94-18-13.64-11.47-2.94-12.87,14-23.57,5.58-10.84-5.58-20,4-26.65,8.68l-16.13-8.06c3-4.19,7-9.14,6.2-15.5-10.38-4.65-13.17,5.89-20.46,9.3,4.81-11,13.49-18.45,17.36-30.38a4.68,4.68,0,0,0-6.82-2.49l-16.12,12.41c21.08-47.6,43.25-97,76.27-137.66-.93-4.18,6.82-4.18,5-9.29-2-4.5-6.28.21-8.91,1.91-35.19,41.55-60.89,97.7-84.77,146.06L735,701.53c-2-1.71-26.7-1.73-35.81-10.82-22.64.77-35-18-49-31.63.47-4.65,7.6-6.5,4.34-11.15-5.58-.48-12.09,3.56-16.12,6.2,10.39-21.24,23.41-43,36.58-63.87-6.66-3-9.77,2.63-14.88,5.58,9.61-18.92,25.74-39.84,37.82-60.15-.77-.78-.46-3.26-2.48-2.48-10.38,2-12.71,11.62-22.94,14.26,12.71-16.43,21.7-35.34,35.35-50.22l16.12-24.19c0-4.34-5.74-2.16-8.06-1.86C725.8,452,741.45,439,751.84,421c-1.71-3.57-5.73-1.24-8.06-.62-14,31.47-36.28,43.4-49,68.21,2.94,7.59,6-1.09,9.92-1.86-2.17,8.52-12.87,13.33-18,22.94-10.7,15.65-22.33,30.54-30.39,47.13,1.09,3.09.16,7,3.1,9.29,6.36,1.09,4.5-5.73,9.92-6.82,4-2.17,6-5.42,9.92-8.06l-32.86,48.37v9.3c2.48-.46,5,1.08,7.44-1.24-6,19.22-22.94,31.62-29.14,52.08-.16,1.56,1.09,2.64.61,4.34,3.57,2.17,6,2.17,9.93.63l-23.56,46.5c-.47,2.17,1.23,3.41.62,5.58,3.09.46,6.2,4.5,9.3,1.24-9.77,18.14-18,36.74-26.66,55.18-1.09,4.81,1.23,8.38,5.57,9.31l1.86-.62c-5.58,16.27-19.53,31.47-16.74,49,4.19,2.48,8.68.62,13.65-.62L577,873.63l-1.24,9.92a25.81,25.81,0,0,0-16.74,0c-3.57,11.16-70.69-13.18-65.1-32.24,1.08-3.26,5.73-4,3.09-8.07-3.41-2.63-7.75-.46-11.16.62-4.18,3.72-4.18,9.92-8.68,13l18.61-53.95c1.39-3.72,6.81-4.19,4.95-9.3-1.54-2.32-4.8-.93-6.81-.62-2.48,4.34-4.66,6.2-8.69,9.3,4.19-17.2,10.85-36,22.32-51.46.93-2.18-1.55-3-2.48-4.35a38.73,38.73,0,0,0-18,10.54c7.76-18.91,13.49-40.92,27.29-55.18.62-1.7-.93-2.63-1.86-3.72-9.93.31-13.65,11.93-21.08,14.26A251.79,251.79,0,0,1,518.7,656c0-1.4.3-3-1.25-3.72-10.38,6.81-17.82,11.62-26,21.08,9.29-27.13,20-56.43,35.34-82.48-1.56-2.79-6.2-.77-7.44,1.25l-18,19.22c5.74-22.79,14.58-44.8,27.91-63.87.31-2.17-.31-4.34-2.48-5-10.24.62-12.1,12.25-19.23,18,5-18.75,17.06-37,23.57-56.43-7.91-4-12.1,6.68-17.37,9.93,10.08-19.22,16.44-40,31-55.81-1.09-1.86-2.48-4.34-5-2.48l-18,13c14.11-24.65,29.46-54.25,50.23-76.27.15-2,0-4.49-2.48-4.34l-3.72.63c-9.14,9-17.36,16.58-24.8,26,28.68-53.94,60.92-106,105.41-150.67a337.18,337.18,0,0,1,53.94-33.48c.47,4.49-10.07,7.75-7.43,13.64,3.41,3.87,9.3,2.17,13,0,20.93-11.31,43.88-18.14,67.6-22.94-5.59,7.29-10.86,12.4-17.37,19.83,2.17,6.06,7.29,3.73,11.78,3.73,14.73-3.73,28.06-10.7,44-11.16-7.13,8.68-21.69,12.71-22.31,24.18,11.31,5.74,25.26-.46,38.44.62h2.48c-6.2,8.22-17.05,10.7-22.32,19.84.78,9,12.09,5.9,18.6,7.44l19.84-1.24c-6.82,6.83-24,4.65-21.08,18.61l5,4.34L871,305.42c-6.67,3.41-23.24,7.67-25.57,15.11,6.35,6.5,23.94,3.23,32.46,5.56-7.13,3.41-23.16,5.6-26.88,13.66,7.13,6.82,19.85,2.48,29.76,3.72-7.13,6-15.5,7.75-22.94,14.26-.78,2.64,1.09,4.65,3.1,5.58,9.77,2.95,22.63,2.33,32.87.63-4.5,5.42-13.32,8.66-16.74,16.74,8.06,8.06,18.9-2.18,29.76,0-4.5,3.56-11.32,7.74-12.4,14.26,5.58,9,16.12,1.23,24.18,1.85-2.63,3.42-5.58,5.58-6.2,9.92,4.5,3.88,8.21-1.7,12.4-2.47,32.09-26.67,67-59.69,115.95-55.81-2.48,2-7,5-6.82,8.06-3.72,2.48-8.68,5.58-9.3,9.92l1.24,1.24c17-5.27,34.88-10.54,54.57-7.44-9,2.48-12.4,9.3-18.61,15.5l4.34,4.34c13.18-.15,26.83-5.11,39.69-.62-6.82,1.86-14.27,5.43-16.74,10.54,3.41,8.22,14.88,4.81,22.32,7.45,9,5.11,19.38,8.52,24.8,18C1132.88,416,1128.07,413.84,1124.5,417.26Z"/><path class="cls-2" d="M1135.74,418.32c-5.43-9.45-15.81-12.86-24.81-18-7.43-2.64-18.9.77-22.32-7.44,2.49-5.12,9.92-8.68,16.74-10.54-12.86-4.5-26.5.46-39.68.61l-4.34-4.33c6.2-6.21,9.61-13,18.6-15.5-19.68-3.11-37.51,2.16-54.56,7.43l-1.25-1.24c.63-4.34,5.59-7.44,9.31-9.91-.16-3.11,4.34-6.05,6.82-8.07-49-3.88-83.87,29.15-116,55.81-4.18.77-7.9,6.36-12.4,2.48.62-4.34,3.57-6.51,6.2-9.92-8.06-.62-18.6,7.13-24.18-1.87,1.09-6.5,7.91-10.69,12.4-14.25-10.84-2.17-21.7,8-29.76,0-1.09-9.15,12.24-11.32,16.74-16.75-10.23,1.71-23.1,2.33-32.86-.62-2-.93-3.88-2.94-3.1-5.58,7.44-6.51,15.81-8.21,22.94-14.26-9.92-1.24-22.64,3.1-29.76-3.71,3.72-8.07,13.32-9.62,20.46-13-8.53-2.32-19.69.31-26-6.2,2.32-7.44,12.55-9,19.22-12.41l-34.1-.61-5-4.34c-2.94-13.95,14.26-11.79,21.09-18.6l-19.84,1.24c-6.52-1.55-17.83,1.55-18.61-7.44,5.27-9.15,16.13-11.63,22.33-19.85h-2.49c-13.17-1.08-27.12,5.12-38.44-.62.62-11.47,15.2-15.5,22.33-24.18-16,.47-29.3,7.44-44,11.16-4.5,0-9.61,2.32-11.78-3.72,6.5-7.44,11.78-12.56,17.36-19.84-23.72,4.8-46.66,11.63-67.59,22.94-3.72,2.17-9.61,3.88-13,0-2.64-5.89,7.9-9.14,7.44-13.64A337.45,337.45,0,0,0,645.89,267c-44.49,44.65-76.74,96.74-105.41,150.68,7.43-9.46,15.65-17.05,24.8-26.05L569,391c2.48-.16,2.63,2.32,2.48,4.34-20.78,22-36.12,51.62-50.22,76.27l18-13c2.48-1.86,3.88.62,5,2.48-14.58,15.81-20.94,36.58-31,55.8,5.27-3.25,9.46-13.95,17.36-9.92C524,526.37,512,544.66,507,563.41c7.13-5.73,9-17.35,19.22-18,2.17.62,2.8,2.78,2.48,5-13.33,19.06-22.17,41.08-27.9,63.86l18-19.22c1.24-2,5.9-4,7.44-1.24-15.35,26-26,55.34-35.34,82.47,8.22-9.46,15.65-14.26,26-21.08,1.55.77,1.24,2.32,1.24,3.71a252.71,252.71,0,0,0-27.28,56.43c7.44-2.33,11.16-14,21.08-14.26.93,1.09,2.48,2,1.86,3.72C500,719.05,494.28,741.06,486.53,760a38.51,38.51,0,0,1,18-10.54c.93,1.39,3.41,2.17,2.48,4.34-11.47,15.5-18.14,34.25-22.32,51.46,4-3.1,6.2-5,8.68-9.3,2-.31,5.27-1.71,6.82.62,1.86,5.12-3.57,5.58-5,9.3q-9.3,27-18.6,53.94c4.49-3.09,4.49-9.29,8.68-13,3.41-1.09,7.75-3.26,11.16-.62,2.64,4-2,4.8-3.1,8.06-5.59,19.06-14.42,36.74-16.74,57-10.86,35-18.92,79.68-7.45,117.82,9.31,38.44,35.82,79.21,77.52,86.81,21.69,3.25,39.37-3.88,54.56-15.51v-1.85c.62-1.4,1.09-5.28,2.48-3.11,1.4-3.72-2.48-.15-1.86-3.72h2.48v-7.44c-8.06-1.55-16-5.26-25.43-5.58-16.89,7.29-39.52,11-53.94-3.1-10.85-13.48-10.54-35.81-7.44-50.23,2.33-.77,7.29-.77,9.3.63,5.74,10.69,14.58,18,22.94,26.66,9.77,5.74,20.78,11.32,32.25,14.26,8.68,4.19,17.67-.31,26.66,2.48,26.2-6.51,55.81-24,61.38-52.71,0-9-.15-18.91-8.06-23.56-2.78,11.94-11.62,23.41-22.94,27.9-18.45,13.18-44.48,22.33-68.21,13-9.45-5.88-21.08-11.93-24.79-22.31,5.11-7.29,11.16,4.18,14.88,6.2,20.15,14.41,50.38,9.76,70.06-2.49,20.62-9.91,25.59-33.32,23.57-53.94-3.26-5.74-5.74-11.63-12.4-14.26-4,19.22-17.68,36-35.35,44.64-13.49.77-23.87,12.4-37.82,8.06,1.24-3.1,6.66-4,9.91-6.2,12.88-13.33,33.65-15.5,45.27-31.62,8.84-14.26,11.94-34,6.82-50.85-3.41-4.18-7.44-9.45-13-9.92-2.48-.15-3.09,2.64-3.72,4.34,5.74,12.56,5.12,29.3.63,42.17-6.36,14.1-19.85,23.25-35.35,22.32-2.79-2.64-11-3.88-8.69-11.16,7.6-7.6,7.91-19.38,11.79-29.15,1.7-11.93.77-25.88-8.68-32.24-6.05-4.65-19.07,0-15.51-11.16a25.84,25.84,0,0,1,16.75,0l1.24-9.92,22.32-43.41c-5,1.24-9.45,3.11-13.64.63-2.79-17.52,11.16-32.71,16.74-49l-1.86.62c-4.34-.93-6.67-4.5-5.58-9.3,8.68-18.45,16.9-37.05,26.67-55.19-3.11,3.26-6.2-.77-9.31-1.24.63-2.17-1.09-3.41-.62-5.58l23.56-46.5c-3.87,1.55-6.35,1.55-9.91-.63.46-1.7-.79-2.78-.63-4.33,6.2-20.47,23.1-32.87,29.14-52.09-2.47,2.32-5,.78-7.43,1.24v-9.3l32.86-48.36c-3.88,2.63-5.89,5.89-9.92,8.06-5.43,1.08-3.57,7.9-9.92,6.82-2.95-2.33-2-6.2-3.11-9.31,8.07-16.58,19.69-31.46,30.39-47.12,5.12-9.61,15.81-14.42,18-22.94-3.88.78-7,9.46-9.92,1.86,12.71-24.8,29.3-49.61,49-68.21,2.32-.62,6.35-2.94,8.06.62-10.39,18-26,31-36,50.23,2.33-.31,8.06-2.48,8.06,1.86l-16.12,24.18c-13.64,14.88-22.63,33.79-35.34,50.23,10.23-2.64,12.55-12.25,22.94-14.27,2-.77,1.7,1.71,2.48,2.48-12.09,20.31-28.21,41.24-37.83,60.15,5.12-2.94,8.22-8.53,14.88-5.58-13.17,20.93-26.19,42.63-36.57,63.86,4-2.63,10.54-6.66,16.12-6.2,3.25,4.65-3.88,6.51-4.35,11.17,14,13.64,26.36,32.39,49,31.62,11.63,2.63,25.89,8.22,37.2,2.48,1.86-5.43,7.29-.46,9.31,1.24l76.26-8.06c23.87-48.36,44.81-98.59,80-140.14,2.64-1.7,7.91-2.63,9.93,1.86,1.86,5.12-5.89,5.12-5,9.31-33,40.61-55.18,90.06-76.26,137.65l16.12-12.4a4.68,4.68,0,0,1,6.82,2.48c-3.88,11.94-12.56,19.37-17.37,30.38,7.29-3.41,10.08-13.95,20.47-9.3.77,6.36-3.26,11.32-6.2,15.5L866,732.69c6.66-4.65,15.81-14.26,26.66-8.67,10.7,8.36,12.09-8.53,23.56-5.59,7.75,1.71,13.8,7.29,18,13.65l10.54-10.55c7.75-6,18.91-1.7,27.9-1.24,7.76,5,9.92,14,14.88,21.7a19.56,19.56,0,0,1,5.58-8.68c13.33-2.94-2.17-15.34,3.72-23.56l-8.68-9.92c-1.54-4.65-12.4-5.27-7.44-13H982c6.2,1.71,14.88,1.39,21.08,5L986.3,674.41l-1.24-5c2.79-10.22,10.85.94,16.74,0-6.66-8.52-12.4-19.37-14.26-31.62,22.63-33.79,53.18-57.82,71.31-93.63,4.65-5.58,5.11-16.74,13.64-18.6,7.75,8.52-4,19.22-1.86,28.53a126.59,126.59,0,0,0,19.22-24.81c6.67-13.95,11.63-28.52,17.37-42.78,1.7-2,2.78,1.08,4.34,1.24,1.39,16.74-4.5,33.17-6.83,47.75,15-22.33,14.11-51.32,19.85-77.52,4.8-1.7,6.66,2.64,8.68,5,.15-11.94,3-21.86-2.48-32.25-2.17-3.57-8.06-5-6.82-10.54C1127.52,416.77,1132.33,418.94,1135.74,418.32Z"/><path class="cls-3" d="M639.69,174c-5.59,3-11.94,6.83-15.51,11.17C617.52,190,609,198.35,600,193.24c-2.63-20.46,20.46-32.71,25.42-48.37-11.78,6.2-19.69,18.76-32.86,21.08-2.32-1.55-5.74-1.55-5-5.57,6-18.45,21.54-26.83,32.86-42.17-16.59,4.34-28.83,17.51-44.64,24.8-3.72,1.24-8.84,4.49-12.4.62-2.79-17.82,15.81-30.23,22.32-41.54-16.44,9.76-30.85,24.33-44,37.82-1.85,1.24-4.34,0-5.57-1.86,3.09-16.59,16-27,24.17-41.54V92.78c-18.13,10.54-31,20.47-46.5,34.73-7.59,3.57-9.61,15.5-19.22,15.5-7.29-5.89,3.25-12.4.62-19.22-14.26,9.76-16.9,26.66-27.28,39.06,5.57-2,10.85-11,19.22-6.82,11.47,6.2-3.1,14.57-1.86,22.95,9.92-4,17.67-9.61,27.9-13a4.51,4.51,0,0,1,5,6.83c-6.51,7.59-7.44,18.6-11.16,27.9,2.64-.16,5.73.47,8.06-.62,4.81-6.67,7.6-16.9,15.5-21.08,2.79,2.63,6.67,2.63,10.54,2.48,8.68,4,13.8,13.79,16.74,22.32,14.89,48.21,16.75,105.1,5.59,153.77,20.3-27,37.51-54.71,60.76-77.5l.63-5.58c-1.4-.16-3.26.46-4.35-.62a136.74,136.74,0,0,1,4.35-14.27c-4.66,1.4-8.38,3.1-13,.62-2.17-15.35,10.39-24.8,16.12-37.82-3.88,0-11.15,5.58-15.49,0-.32-19.23,16-32.56,27.28-46.51Z"/><path class="cls-2" d="M531.17,436.92l-1.23,1.24c-1.71,2.17-5.27,1.24-6.83-.62.15-14.41,10.7-26,17.37-38.44-9.15,9.29-20.47.62-32.25,1.86.62,11.93,3.41,23.1,5,34.72-2.48,4.19-1.08,11-7.44,12.4a11.19,11.19,0,0,1-13.65-5c-4.8-13.79-11-27-11.15-42.78,1.08-13.64-3.26-27.13,6.2-37.2,11.47-11.94,25.27,1.08,36.58,3.09,4.81-42.16,8.84-83.24,6.21-127.73l-1.87-3.1a98,98,0,0,0-14.26,26.67c-5.11,10.07-2.17,23.87-9.92,32.23-8.06,2.64-8.84-6.5-13.64-10.54-13.8-23.25,5.73-45.41,14.26-65.1,1.08-6.36-.93-8.68-6.82-9.31-6.51-9.91,6.51-19.21,5.58-28.51-8.06,3.87-13.17,10.38-23.57,8.68-7.9-4.5-2.78-12.4-2.48-19.23-10.54,10.39-28.67,8.69-36,24.19,10.7-3.57,26.51-4.19,36.59,1.24,4.64,6.35,19.06,6.35,14.25,17.36-13.17-4.81-25.26-16.28-42.77-11.78-11,2.32-22.33,9.61-25.43,21.7h1.24c6.51-4.5,15.19-4,22.94-5.58C464.67,219,483,226,487.76,242.84c.16,2.79-3.4,3.56-4.95,3.1A46.91,46.91,0,0,0,458,227.34c-12.08-3.57-24.33.46-34.1,6.2-5.12,5.11-10.39,11.31-8.68,19.84,7.75-6.66,17.83-7.44,27.91-8.68,15.81.15,31.16,9.3,38.43,22.32.78,2.79-.92,4.5-3.71,3.73-8.69-6.82-18.45-16.43-31-16.75-14.42-.77-27.91,4.5-35.35,15.5-1.24,7-4,14.11.62,20.46-2.56,3.1,2.58,8.05,2.77,9.92,3.61-8.21,9.64-14.43,15.83-21.07,4.19-.16,8.68-5.12,12.41-.63C453.67,281.6,461,292.3,463,303.61c3.57,31.46-7.9,62.47-27.9,83.09-4.65,2.32-11.16,3.56-16.12,1.24-7.13-4.49-12.4-11.32-13.64-19.85,1.39,6.21.15,13.49-1.24,18.61,1.86,7.9,7.29,13.95,14.26,18.6,0,1.39.31,2.95-1.24,3.72-10.85,1.55-14.26-9-18.6-15.5a15.74,15.74,0,0,1-15.5,3.72c-5.43-1.86-6.82-7.91-8.68-11.79l-6.83,6.83c-22.94,36.89-38.28,77-38.44,123.39.93,9.77-3.25,23.87,9.3,26.66,21.55,6.67,44-.46,60.77-11.15,18.13-19.23,34.1-44.5,31.62-73.8-10.54-.15-14.26,11.63-22.32,15.51-.78-1.71-3.57-.31-3.1-3.1-.31-6.05,7-10.39,10.54-15.5,8.37-5.9,19.38-9.46,29.76-6.83,7.91,3.72,15.35,9.77,17.36,18.6,1.4,5.9.63,13.49-3.71,16.74-4-2.94-2.49-10.38-3.72-15.49-1.71-6.52-7.61-9.61-13.65-11.17,7.6,32.25-1.7,61.39-13.64,88.67a85.63,85.63,0,0,1-70.68,48.37c-5.43-8.53-17.06-7-26.05-6.2-6.36,2.48-13.8,6.66-16.74,13.64a21.71,21.71,0,0,0,0,18.6c12.86,7.75,24.34-3.1,35.34-7.44,6.82-2.79,14.11-16,21.7-9.3.47,16.28,12.72,29.46,26.05,37.2,23.71,12.4,54.26,4.34,75.64-7.44,22.33-7.9,18.14-32.24,27.29-48.36l-2.48,1.24c-2-1.09-5.42-.16-6.21-3.1-1.23-16.28,11.33-29.76,15.51-45.27-1.7,3.41-4.18,6.51-8.06,7.44-3.41,1.25-4.65-2.79-5-5,6.35-20.77,18.91-39.53,27.28-58.9-4.34,3.87-6.82,11.31-14.26,9.3a6.11,6.11,0,0,1-2.48-6.2C512.57,467.31,522.33,450.72,531.17,436.92Z"/><path class="cls-2" d="M414.89,299.88c-.09.21-.2.41-.29.62A.55.55,0,0,0,414.89,299.88Z"/><path class="cls-2" d="M547.91,200.06c-2.94-5.74-7.9-13.33-16.74-11.16-9,10.54-11.63,23.09-19.84,32.86-7.75,16.59-20.3,32.7-16.12,52.71a36.42,36.42,0,0,0,6.2,9.92,109,109,0,0,1,13-42.17c5.11-5.89,6.67-16.43,16.12-15.5a18.24,18.24,0,0,1,6.82,11.78c4.19,43.4-2,84.79-4.34,127.73-8.84,19.07-21.54-2.17-35.34-.61-3.72,1.08-5.59,5.11-7.44,8.06-2.95,23.71-1.55,49.29,11.16,67.58l2.48-2.48c1.09-3.41,3.1-7.75.62-11.16-.16-11.47-8.06-23.56-1.24-34.1,13.18-5.43,27.44,8.67,37.82-3.73,8.53-7.13,15-20,13-31.62C567.6,308.26,564.5,247.49,547.91,200.06Z"/><path class="cls-4" d="M1122.39,419.3l.38-.36c3-2.82,6.51-2.56,9.38-2.33l.4,0c-4.06-5.3-10-8.35-16.33-11.55-2-1-4-2.06-6-3.18a32.49,32.49,0,0,0-8-1.14c-5.9-.38-12.59-.81-15.25-7.21l-.29-.72.33-.69c2.23-4.6,7.6-7.67,12.17-9.53-6.41-1-13-.1-19.91.82a114.86,114.86,0,0,1-13.63,1.25H1065l-6.07-6.06,1.21-1.22c1.59-1.58,3-3.23,4.38-4.83,2.71-3.17,5.33-6.21,8.92-8.47-17.38-1.23-33.3,3.7-47.53,8.1l-1,.3L1022.3,370l.12-.86c.69-4.82,5.44-8,9.34-10.64.34-2.16,2-4,3.9-5.63-42.35-1.34-74.44,25.58-102.88,49.48-2.48,2.08-4.94,4.15-7.39,6.18l-.34.29-.44.08a12.23,12.23,0,0,0-3.58,1.67c-2.68,1.61-6.35,3.8-10.26.42l-.72-.61.14-.94c.48-3.36,2.19-5.62,4-7.7-1.37.23-2.8.58-4.28.94-6.12,1.5-13.06,3.19-17.44-3.87l-.34-.55.11-.64c.91-5.48,5.28-9.36,9.33-12.5a45.82,45.82,0,0,0-8.07,1.69c-6.25,1.71-12.72,3.48-18.15-1.95l-.42-.42-.07-.59c-.84-7.06,5.22-10.47,10.57-13.47.53-.3,1.06-.59,1.57-.89-7.46.78-18.15,1.12-27.05-1.56l-.22-.08c-2.75-1.27-5.06-4.12-4-7.63l.14-.48.37-.33a56.23,56.23,0,0,1,12.3-7.72c2.36-1.21,4.64-2.37,6.83-3.76-1.81,0-3.67.13-5.5.23-7.48.43-15.21.87-20.5-4.19l-.89-.85.51-1.12c3.09-6.68,9.78-9.29,15.73-11.57-1.12-.09-2.28-.16-3.46-.24-6.35-.39-12.93-.79-17.51-5.49l-.72-.73.3-1c1.76-5.61,7.25-8.23,12.57-10.32l-26.46-.48L823.52,307l-.12-.57c-2.22-10.51,5.91-13.34,12.45-15.62,1.08-.37,2.17-.75,3.22-1.16l-12.89.8-.25-.06a31.81,31.81,0,0,0-5.9-.53c-5.63-.18-13.33-.43-14-8.43l0-.54.27-.47c3-5.29,7.78-8.45,12.35-11.52a54.32,54.32,0,0,0,7.7-5.82,79.06,79.06,0,0,0-13.77.94c-8.21,1-16.71,2.11-24.17-1.67l-1-.51.06-1.12c.44-8.13,7-12.78,13.34-17.28,2.15-1.53,4.35-3.09,6.3-4.78-8.57.89-16.39,3.53-24.59,6.3-4.73,1.59-9.61,3.24-14.61,4.5l-.42.05c-.89,0-1.83.11-2.82.21-3.55.4-8.43.93-10.58-5.07l-.35-.95.67-.76c2.27-2.59,4.37-4.89,6.4-7.11,2.72-3,5.33-5.81,7.93-8.94-25.06,5.39-45,12.37-62.44,21.8-4.71,2.74-11.19,4.1-15.13-.38l-.17-.19-.11-.24c-1.92-4.28,1.3-7.47,3.87-9.84A341.75,341.75,0,0,0,647,268.32c-43.2,43.39-73.73,92.67-97.86,136.88,3.42-3.56,7-7,10.62-10.58,1.41-1.37,2.84-2.76,4.29-4.19l.39-.39,4.43-.72a3.79,3.79,0,0,1,3.07,1.07c1.36,1.38,1.35,3.59,1.23,5.12l0,.61-.42.44C555,415.4,541,440.2,528.65,462.08c-.67,1.18-1.33,2.36-2,3.52l11.55-8.37a4.19,4.19,0,0,1,3.4-.91c2,.4,3.17,2.39,4,3.83l.65,1.1-.82,1c-10.06,10.92-16.05,24.07-22.4,38-1.21,2.65-2.44,5.35-3.71,8.05,3.11-3.08,6.91-5.45,12-2.85l1.33.67-.48,1.41c-3,8.89-7.16,17.61-11.19,26-3.63,7.56-7.1,14.82-9.76,22.11l.76-1.14c3.35-5.11,6.81-10.39,14.12-10.83l.29,0,.28.08c2.75.78,4.2,3.48,3.72,6.86l-.06.41-.24.33c-11,15.8-19.73,34.84-25.88,56.69L517.41,594a8.27,8.27,0,0,1,6.43-3.26,4.38,4.38,0,0,1,3.88,2.25l.47.87-.5.84c-14,23.8-24.19,50.55-32.6,74.66,6.2-6,12.41-10,20.31-15.21l1.4-.92.88.45c2.31,1.15,2.25,3.38,2.2,4.71,0,.18,0,.36,0,.54v.52l-.28.42A250.52,250.52,0,0,0,494,711.56a43.39,43.39,0,0,0,3.86-3.83c3.58-3.83,7.64-8.18,14.06-8.38l.82,0,.54.63a7.07,7.07,0,0,0,.54.56c.93.93,2.5,2.48,1.63,4.87l-.13.35-.25.26c-10.45,10.8-16.26,26.41-21.88,41.5-.8,2.17-1.62,4.37-2.46,6.57a41,41,0,0,1,13.37-6.29l1.18-.31.68,1a5.19,5.19,0,0,0,.85.83c1,.87,2.92,2.48,1.78,5.15l-.2.34c-8.89,12-15.7,27-20.73,45.76a21.76,21.76,0,0,0,4.21-5.47l.42-.72.82-.13c.35,0,.74-.15,1.16-.24,2-.48,5.44-1.26,7.35,1.6l.19.37c1.56,4.3-.93,6.4-2.74,7.93a7,7,0,0,0-2.23,2.57l-13.88,40.27a10.85,10.85,0,0,1,1.21-1.24l.27-.24.35-.11,1.49-.51a19.81,19.81,0,0,1,6.38-1.44,7.74,7.74,0,0,1,4.86,1.6l.23.18.16.24c2.45,3.74.13,6-1.25,7.38a6.31,6.31,0,0,0-1.66,2.17c-1.86,6.37-4.14,12.72-6.34,18.86-4.32,12.06-8.8,24.52-10.32,37.84l-.07.31c-9.85,31.81-19.14,77.89-7.44,116.81,8.4,34.67,33.36,77.82,76.18,85.61,18.51,2.78,35.72-2,52.53-14.66v-1.37l.15-.34c.1-.23.24-.69.37-1.13a11.26,11.26,0,0,1,.81-2.22,1.54,1.54,0,0,1-.17-.19,3.55,3.55,0,0,1-.51-2.87l.25-1.43h2.2v-4.31c-2.53-.56-5-1.28-7.6-2-5-1.46-10.14-3-15.78-3.21-32.53,13.89-49.62,2.12-55.47-3.61l-.14-.15c-11-13.67-11.07-36.38-7.78-51.67l.2-1,.94-.31c2.65-.88,8.18-1,10.82.84l.34.24.2.36c4.33,8.09,10.49,14.17,17,20.61,1.8,1.78,3.66,3.62,5.49,5.51,12.11,7.09,22.16,11.53,31.6,14l.32.12c4.31,2.08,8.78,1.81,13.51,1.53,4-.24,8.19-.49,12.44.72,38.4-9.7,56-32.69,59.62-51.1,0-9-.45-16.3-5.31-20.54-3.58,11.85-12.61,22.31-23.13,26.57-22.95,16.33-49,21.23-69.67,13.11l-.29-.14c-1.05-.66-2.14-1.32-3.23-2-8.8-5.35-18.77-11.42-22.28-21.21l-.3-.84.52-.73a6.46,6.46,0,0,1,4.77-3.12c3.51-.24,6.5,3,9.15,5.81a17.68,17.68,0,0,0,3.19,3l.18.12c19.56,14,49.09,9.31,68.16-2.55l.16-.09c7.93-3.81,26-16.49,22.63-51.86-.35-.63-.7-1.25-1-1.88-2.38-4.34-4.48-8.16-8.48-10.44-4.59,18.43-18.13,35-35.79,43.72l-.31.15-.35,0c-5.24.3-10.16,2.41-14.93,4.45-7.21,3.09-14.67,6.29-23.51,3.53l-1.78-.55.7-1.73c1.07-2.66,4-3.92,6.84-5.15a24.72,24.72,0,0,0,3.57-1.75c6-6.11,13.56-10,20.91-13.68,8.79-4.45,17.87-9.05,24-17.56,8.73-14.12,11.35-33.33,6.7-49.07l-.26-.32c-3.17-3.9-6.76-8.32-11.35-8.7-.66-.05-1,.53-1.73,2.54,5.18,11.92,5.35,28.63.4,42.81l0,.14c-6.82,15.13-21.35,24.28-37,23.34l-.62,0-.46-.43a14,14,0,0,0-2.74-1.7c-3.4-1.81-8.53-4.54-6.4-11.23l.13-.4.3-.3c4.77-4.77,6.48-11.35,8.29-18.31a89.42,89.42,0,0,1,3-10.06c1.21-8.64,1.73-23.86-8-30.37-1.92-1.47-4.74-1.9-7.47-2.31-3.39-.51-6.9-1-8.54-3.68-1.09-1.75-1.15-4.08-.18-7.12l.27-.84.83-.27a27.49,27.49,0,0,1,15.83-.59l1-8.21,20.69-40.24c-3.73,1-7.54,1.63-11.22-.55l-.7-.41-.12-.8c-2-12.27,3.87-23.35,9.5-34.07a141.82,141.82,0,0,0,6.28-13,8.87,8.87,0,0,1-5.42-3.76,9.73,9.73,0,0,1-1-7.51l.12-.35q3-6.43,6-12.88c5.91-12.74,12-25.87,18.73-38.67a11.81,11.81,0,0,1-3.55-1.4,9.13,9.13,0,0,0-2.51-1l-1.94-.29.54-1.89a2.85,2.85,0,0,0-.26-1.84,6.34,6.34,0,0,1-.39-3.63l.14-.42,21.79-43a10.73,10.73,0,0,1-7.5-1.88l-1.11-.67.34-1.25a2.25,2.25,0,0,0-.23-1.41,5.91,5.91,0,0,1-.44-2.64l.06-.33c3.26-10.74,9.37-19.29,15.27-27.56,4.92-6.88,9.59-13.43,12.62-21a12.39,12.39,0,0,1-2.15-.07,8,8,0,0,0-2.07,0l-2,.38V602l26.33-38.74c-.27.16-.56.33-.85.48l-.22.12-.25.05c-1.62.33-2.24,1.27-3.18,2.92-1.15,2-2.72,4.7-7.37,3.92l-.43-.08-.35-.27c-2.5-2-2.82-4.69-3.1-7.09a14.42,14.42,0,0,0-.56-3l-.24-.67.32-.65c6.21-12.78,14.66-24.76,22.83-36.35,2.52-3.56,5.12-7.25,7.63-10.92,2.48-4.62,6-8.06,9.51-11.39,1.51-1.45,3-2.86,4.26-4.31a3.47,3.47,0,0,1-2.21.26c-2-.42-3-2.56-3.64-4.12l-.27-.72.35-.69c14.33-28,31.39-51.71,49.33-68.67l.32-.31.43-.11c.38-.1.8-.25,1.26-.41,2.35-.83,6.73-2.36,8.79,2l.39.81-.45.79c-4.88,8.45-11,15.92-16.9,23.15-6.06,7.41-12.3,15-17.3,23.83,1.78-.27,3.7-.27,5.06.82a4.16,4.16,0,0,1,1.46,3.43v.52l-16.57,24.82c-7.77,8.48-13.9,18.1-20.39,28.29-3.44,5.41-7,11-10.78,16.32a44,44,0,0,0,4.54-3.92c3.32-3.15,6.76-6.4,12.5-7.55a3,3,0,0,1,2.32,0,3.68,3.68,0,0,1,1.73,2.44c0,.16.12.39.17.5l.88.88-.68,1.15c-5,8.42-10.76,17-16.32,25.33-6.51,9.73-12.73,19-17.83,28,2.74-1.9,6-3.19,10.42-1.23l1.82.81-1.06,1.68c-10.28,16.35-23.18,37.4-33.85,58.41,4-2.14,8.15-3.71,12.08-3.37l.8.07.47.66c2.69,3.85.06,6.68-1.68,8.55a9.91,9.91,0,0,0-2.2,3c2.34,2.32,4.66,4.8,6.92,7.2,11,11.74,22.39,23.9,40.13,23.27h.23l.21.05c2.09.47,4.21,1,6.45,1.61,9.57,2.5,20.38,5.32,29,1.3a4.65,4.65,0,0,1,3-2.79c3-.81,6.3,1.86,8.22,3.49l74.59-7.88c4-8,7.91-16.27,11.73-24.23C851,623.7,870.77,582.6,900,548l.16-.19.22-.14a10.25,10.25,0,0,1,8-1.36,6.94,6.94,0,0,1,4.42,4l0,.11c1.43,4-1.4,6-3.09,7.24s-2,1.59-1.82,2.28l.19.82-.53.64c-31.93,39.27-54,87.58-73.29,131.08l11-8.41a6.7,6.7,0,0,1,5.71-.4,6,6,0,0,1,3.6,3.86l.17.53-.18.52c-2.23,6.87-6,12.3-9.63,17.55-1.27,1.83-2.51,3.63-3.68,5.45,3.66-3.67,7.93-7.4,15.49-4l.88.4.12,1c.75,6.18-2.51,11.08-5.34,15.06l13.39,6.7c.77-.56,1.57-1.18,2.41-1.83,6.36-4.89,15.07-11.59,25.2-6.37l.27.17c4.6,3.6,6.62,1.75,10-1.32,3-2.75,6.75-6.17,13-4.58,8.25,1.82,14.1,7.56,17.8,12.64l9.24-9.22c6.29-4.91,14.5-3.64,21.75-2.51,2.58.4,5,.78,7.3.9l.46,0,.38.25c5.75,3.68,8.64,9.42,11.43,15,.73,1.44,1.46,2.9,2.25,4.34A20.5,20.5,0,0,1,992,732l.33-.3.44-.1c2.06-.45,3.37-1.16,3.9-2.1.86-1.55-.08-4.27-1.08-7.15-1.31-3.77-2.91-8.38-.85-12.44l-8.09-9.24-.1-.33c-.38-1.12-2-2.14-3.51-3.13-1.73-1.11-3.53-2.25-4.54-4-1.24-2.13-1-4.61.79-7.37l.51-.79h2.41l.23.06a58.37,58.37,0,0,0,7.19,1.28c2.34.33,4.72.66,7,1.18l-11.9-12.34-1.46-5.85.12-.43c.76-2.76,2-4.46,3.68-5.21,2.69-1.16,5.62.4,8.47,1.9.72.38,1.44.77,2.15,1.1a69.36,69.36,0,0,1-11.86-28.7l-.1-.66.37-.56c9.57-14.28,20.64-26.94,31.34-39.18,15.14-17.33,29.44-33.69,39.86-54.27l.22-.32a28.12,28.12,0,0,0,3.63-6.91c2.14-5.1,4.57-10.88,11-12.27l1-.21.67.73c5.22,5.74,2.78,12.34.63,18.16a36.18,36.18,0,0,0-2.2,7.44,126.35,126.35,0,0,0,16.15-21.54c4.51-9.47,8.32-19.41,12-29,1.7-4.45,3.46-9.06,5.28-13.57l.1-.26.18-.21a3.31,3.31,0,0,1,2.29-1.29,4,4,0,0,1,2.93,1.38,3.61,3.61,0,0,0,.7.56l1.42.15,0,1.41c1,12-1.59,23.52-4.1,34.69-.21,1-.43,1.93-.64,2.87,6.2-13.47,8.34-28.84,10.43-43.8,1.1-7.85,2.23-16,3.93-23.76l.21-.93.9-.32a6.73,6.73,0,0,1,7.71,1.89c.08-1.4.18-2.77.28-4.12.58-8.21,1.09-15.3-2.74-22.63a12.12,12.12,0,0,0-2.67-2.63c-2.38-1.95-5.35-4.38-4.31-9.08Z"/><path class="cls-1" d="M1131.88,420a16.15,16.15,0,0,0,4.17,0l2.4-.43-1.22-2.12c-4.48-7.81-12.09-11.69-19.44-15.44-2-1-4.06-2.07-6-3.18l-.27-.13a34.14,34.14,0,0,0-9-1.38c-5.29-.34-9.9-.64-11.94-4.38,2.2-3.6,7.82-6.9,15.26-8.93l5.34-1.46-5.23-1.83c-8.92-3.12-18.14-1.89-27.05-.71a118,118,0,0,1-12.5,1.22l-2.62-2.62c1.19-1.27,2.28-2.55,3.35-3.79,3.85-4.48,7.17-8.35,13.29-10l-.19-3.37c-20.08-3.16-38.13,2.18-54.11,7.12,1.08-2.92,4.76-5.36,7.78-7.36l1.33-.88,0-1c-.09-1.76,3-4.13,5-5.69l1.21-.95,3.33-2.72-4.28-.34c-46-3.61-79.89,24.88-109.83,50q-3.54,3-7,5.9a16.17,16.17,0,0,0-4.24,2c-2.57,1.53-4,2.17-5.47,1.32.58-2.21,1.94-3.77,3.61-5.68.67-.76,1.36-1.55,2-2.44l1.95-2.52-3.18-.25c-3-.22-6.1.54-9.15,1.29-6.34,1.55-10.48,2.21-13.33-1.79,1.1-4.56,5.56-7.93,9.52-10.93.74-.55,1.46-1.1,2.12-1.62l2.92-2.31-3.65-.73c-4.89-1-9.56.3-14.08,1.53-5.81,1.59-10.44,2.85-14.36-.64-.14-4.07,3.46-6.42,8.88-9.47,2.95-1.65,5.74-3.22,7.53-5.38l2.94-3.56-4.55.76c-5.82,1-20.55,2.86-32-.53-.58-.29-2.35-1.31-2.16-3a55.92,55.92,0,0,1,11.16-6.88,55.82,55.82,0,0,0,11.33-7l3-2.54-3.89-.48a61.51,61.51,0,0,0-10.86,0c-6.53.37-12.73.73-17-2.42,2.77-4.65,8.17-6.71,13.4-8.72,1.89-.72,3.85-1.47,5.64-2.32l4.18-2L871.42,328a50,50,0,0,0-10-1.28c-5.56-.34-10.82-.67-14.48-3.73,1.88-4,7-6,12-7.86a60.75,60.75,0,0,0,6-2.54l-.75-3.26-33.47-.6-4.05-3.54c-1.18-6.73,3.19-8.62,10.32-11.11,3.8-1.32,7.72-2.68,10.4-5.36l3.23-3.22L826.47,287a36.45,36.45,0,0,0-6.33-.56c-6.7-.22-10-.77-10.64-4.76,2.65-4.31,6.71-7,11-9.89,3.88-2.6,7.89-5.29,10.92-9.3l2.08-2.76h-5.87c-5.19-.42-10.46.25-15.55.89-7.62,1-14.84,1.88-21.12-.83.9-5.81,6.19-9.56,11.77-13.52,3.59-2.55,7.3-5.19,10-8.52l2.4-2.93-3.78.11c-10.88.32-20.63,3.61-30,6.78-4.6,1.55-9.35,3.16-14.15,4.38a29,29,0,0,0-3,.23c-3.48.38-5.38.47-6.59-1.9,2-2.24,3.84-4.27,5.64-6.24,3.8-4.15,7.39-8.06,11.09-12.89l2.79-3.64-4.5.91c-27.62,5.59-49.25,12.94-68.11,23.15-1.21.7-7.33,4-10.68.55-.7-1.95.86-3.57,3.47-6,2.21-2,4.49-4.11,4.2-6.93l-.25-2.45L699.07,232a338.45,338.45,0,0,0-54.22,33.66l-.18.16C619.33,291.24,584.41,331.39,539,416.89l2.87,1.87c6.18-7.86,13.07-14.57,20.35-21.67,1.29-1.25,2.59-2.53,3.92-3.83l3.08-.51a.64.64,0,0,1,.33.06s.33.39.28,1.85c-17.85,19.08-31.81,43.85-44.14,65.73-2,3.54-3.95,7-5.89,10.4l2.5,2.25,18-13c.34-.26.57-.33.66-.31.31.07.74.62,1.13,1.21-9.92,11.15-16.13,24.76-22.13,37.93-2.61,5.71-5.3,11.61-8.27,17.28l-2.91,5.56,5.34-3.3a25,25,0,0,0,5.18-4.9c3.43-3.89,5.9-6.31,9.12-5.48a249.18,249.18,0,0,1-10.51,24.1c-4.82,10.07-9.81,20.48-12.56,30.88L504,568l4.09-3.29c2.85-2.29,4.85-5.35,6.8-8.31,3.08-4.71,5.75-8.78,11.11-9.26,1,.46,1.11,1.76,1,2.59-12.26,17.64-21.65,39.2-27.91,64.07l2.92,1.6,18-19.23.21-.27a5,5,0,0,1,3.52-1.79l.24,0c-15.27,26.27-25.94,55.83-34.76,81.54l2.93,1.69c7.69-8.85,14.72-13.57,24.28-19.85,0,.18,0,.41,0,.7v.13a252.74,252.74,0,0,0-27.21,56.41L488.18,718l3.2-1c3.6-1.13,6.33-4.06,9-6.9,3.25-3.48,6.33-6.78,10.89-7.24l.12.12c.59.58.8.84.84,1C501.49,715.26,495.62,731,490,746.29c-1.62,4.33-3.29,8.81-5,13l2.86,1.82a36.59,36.59,0,0,1,16.15-9.77c.21.2.42.38.62.55.79.67.93.84.9,1-9.89,13.43-17.24,30.4-22.47,51.87l-1.15,4.75,3.88-3c4-3.11,6.31-5.1,8.72-9.13l.58-.13c2-.46,3.07-.58,3.61,0,.58,1.76-.05,2.41-1.81,3.89a9.92,9.92,0,0,0-3.24,4l-20.31,58.9,4.32-3c2.75-1.9,4-4.67,5.21-7.36a17.15,17.15,0,0,1,3.38-5.55l1.22-.42c2.76-1,5.62-2,7.77-.52.68,1.12.4,1.45-.95,2.78a9,9,0,0,0-2.52,3.59c-1.86,6.33-4.12,12.63-6.3,18.72-4.37,12.2-8.9,24.81-10.48,38.46-10,32.26-19.34,79-7.43,118.57,8.61,35.59,34.44,80,78.93,88.11a71.49,71.49,0,0,0,10.64.81c15.77,0,30.66-5.5,45.23-16.65l.67-.52v-2.37c.11-.3.21-.62.31-1l.86,1.34,1.2-3.21a4.23,4.23,0,0,0,.32-2.61h.41v-10.58l-1.4-.27c-2.85-.55-5.68-1.37-8.67-2.25-5.3-1.55-10.79-3.15-17-3.36h-.38l-.36.15c-10.26,4.43-35.84,13-52-2.68-9.94-12.44-10.15-33.17-7.25-47.66,2-.37,5.13-.24,6.54.45,4.56,8.33,10.8,14.49,17.4,21,1.84,1.83,3.74,3.71,5.59,5.63l.17.17.2.12c12.42,7.29,22.76,11.87,32.53,14.4,5.06,2.38,10.14,2.08,15.05,1.78,4-.24,7.88-.47,11.69.72l.46.14.46-.12c14.55-3.61,28.42-10.13,39.07-18.35,12.82-9.89,21-22.24,23.6-35.7l0-.33c0-8.82,0-19.8-8.91-25l-2-1.18-.53,2.27c-2.77,11.87-11.57,22.59-21.9,26.69l-.37.2c-22,15.7-46.79,20.51-66.43,12.88-1-.64-2.07-1.28-3.13-1.92-8.42-5.12-17.11-10.42-20.48-18.56a2.53,2.53,0,0,1,1.65-1c1.83-.12,4.36,2.56,6.38,4.72a19.24,19.24,0,0,0,4,3.6c20.76,14.79,51.81,10,71.82-2.42,8.66-4.19,28.14-17.94,24.45-55.63l0-.36-.19-.32-1.19-2.15c-2.79-5.08-5.67-10.33-12.07-12.86l-1.9-.76-.42,2c-3.8,18.15-16.86,34.71-34.12,43.3-5.69.41-10.79,2.59-15.72,4.7-6.1,2.61-11.91,5.1-18.39,4.06a25.52,25.52,0,0,1,3.35-1.62,27.07,27.07,0,0,0,4.27-2.15l.28-.23c5.58-5.78,12.65-9.36,20.13-13.15,9.17-4.64,18.65-9.44,25.3-18.67l.07-.1c9.45-15.25,12.14-35.27,7-52.25l-.1-.32-.69-.85c-3.42-4.21-7.68-9.46-13.77-10-3.49-.25-4.63,3.09-5.24,4.87l-.2.59-.25.67.3.64c5.1,11.16,5.32,27.17.59,40.81-6.16,13.58-19.08,21.86-33.08,21.27a20.1,20.1,0,0,0-3-1.8c-3.59-1.91-5.78-3.28-4.85-6.77,5.2-5.41,7.07-12.6,8.88-19.57a85,85,0,0,1,3-9.84l.11-.39c1.34-9.4,1.89-26.31-9.34-33.85-2.54-1.95-6-2.47-9-2.92-2.74-.42-5.32-.81-6.13-2.1-.44-.71-.46-1.85-.06-3.41a24.14,24.14,0,0,1,14.8.27l2,.66,1.47-11.7L602,830.56l-3.69.91c-.76.19-1.51.4-2.25.6-3.54,1-6.64,1.81-9.39.58-1.39-10.8,3.8-20.66,9.27-31.08a118.29,118.29,0,0,0,7.52-16.23l1.13-3.29-4.7,1.56a5.36,5.36,0,0,1-3.23-2.24,6.23,6.23,0,0,1-.63-4.71q3-6.36,5.93-12.72c6.46-13.93,13.14-28.34,20.61-42.21l-2.76-2c-1.05,1.1-1.79.93-4.2-.34a21.93,21.93,0,0,0-2-1,8,8,0,0,0-.5-2.16,3.83,3.83,0,0,1-.32-1.61l25.51-50.35-4.24,1.7c-3.16,1.26-5,1.31-7.45,0a6.88,6.88,0,0,0-.47-2.06,3.73,3.73,0,0,1-.27-1c3.11-10.11,9-18.37,14.72-26.36,5.56-7.8,11.32-15.86,14.36-25.51l-2.83-1.78c-1,1-1.92.93-3.56.78l-1-.08v-7l32.56-47.93-2.39-2.39a35.7,35.7,0,0,0-4.62,3.9,24.13,24.13,0,0,1-4.94,4c-3,.71-4.29,2.9-5.22,4.51s-1.45,2.52-3.34,2.31c-1-1-1.25-2.42-1.5-4.52a21.52,21.52,0,0,0-.51-3c6.05-12.29,13.93-23.46,22.26-35.26,2.54-3.6,5.16-7.32,7.7-11l.1-.16c2.23-4.19,5.63-7.46,8.91-10.62,4.08-3.93,7.93-7.63,9.22-12.71l.67-2.65-2.68.54c-1.86.37-3.35,1.84-4.67,3.14a9.87,9.87,0,0,1-2.13,1.8s-.36-.18-.88-1.32c14-27.16,30.57-50.22,48-66.75.34-.1.7-.23,1.08-.36,2.32-.81,3.41-1,4-.47-4.65,7.84-10.43,14.9-16,21.74-6.9,8.43-14,17.14-19.43,27.62l-1.51,2.94,3.27-.44c.45-.06,1-.18,1.62-.32,1.19-.26,3.66-.8,4.31-.27a.49.49,0,0,1,.14.28L705.91,499.1c-7.93,8.68-14.4,18.84-20.66,28.67-4.6,7.22-9.35,14.68-14.68,21.57l-3.08,4,4.87-1.26c5.41-1.39,8.72-4.52,11.91-7.54s6.06-5.73,10.85-6.68l.06.16a5.43,5.43,0,0,0,.19.57c-4.85,8.07-10.37,16.34-15.72,24.34-8.21,12.27-16,23.86-21.66,35.07l-2.62,5.16,5-2.89a30.46,30.46,0,0,0,4.06-2.91c2.79-2.24,4.71-3.63,7.32-3.2-11,17.54-24.68,40.06-35.48,62.15l-2.75,5.62,5.24-3.42c2.76-1.81,9-5.9,14.17-6,.41,1-.13,1.76-1.78,3.54-1.34,1.45-3,3.25-3.27,5.77l-.08.82.59.58c2.51,2.45,5,5.15,7.49,7.75,11.49,12.25,23.37,24.9,42.54,24.37,2,.45,4,1,6.12,1.53,10.37,2.71,22.13,5.77,32,.76l.62-.32.23-.66c.18-.51.48-1.15.92-1.27,1.37-.36,4.35,2.17,5.34,3l.87.74,77.94-8.24.42-.85c4.11-8.34,8.21-16.86,12.16-25.11,18.95-39.47,38.53-80.28,67.42-114.47a6.81,6.81,0,0,1,5-.82,3.49,3.49,0,0,1,2.23,2c.46,1.33,0,1.83-1.89,3.21-1.37,1-3.37,2.44-3.28,4.93-33.48,41.4-56.08,92.43-76,137.47l2.63,2.07,16-12.32a3.25,3.25,0,0,1,2.66-.15,2.62,2.62,0,0,1,1.38,1.24c-2.09,6.1-5.44,10.94-9,16.06a79.46,79.46,0,0,0-8.11,13.57l-1.83,4.18,4.13-1.93a24.38,24.38,0,0,0,6.81-5.39c3.53-3.56,6.14-6.19,11.3-4.27.16,4.71-2.68,8.68-5.2,12.22l-1.93,2.73,18.83,9.41.84-.59c1.07-.75,2.18-1.6,3.36-2.51,6.22-4.78,13.26-10.2,21.38-6.11,6.82,5.24,11,1.45,14.29-1.59,2.88-2.64,5.37-4.93,9.83-3.78,8.13,1.8,13.69,8,16.92,12.91l1.16,1.77,12-12c5.11-3.92,12.18-2.82,19-1.75,2.39.37,4.85.75,7.18.9,4.72,3.19,7.21,8.14,9.85,13.38a84,84,0,0,0,4.14,7.56l1.95,3,1.14-3.42a17.79,17.79,0,0,1,4.77-7.65c2.85-.71,4.71-1.91,5.7-3.68,1.62-2.9.38-6.49-.83-10-1.3-3.74-2.64-7.62-.58-10.5l.8-1.11-9.38-10.71c-.85-2.07-2.85-3.35-4.79-4.59a10.84,10.84,0,0,1-3.41-2.82c-.22-.37-.68-1.17.25-3h0a65.42,65.42,0,0,0,7.4,1.32c4.61.63,9.37,1.29,13,3.41l2.1-2.68-16.42-17-1-4.06c.32-1.05.84-2.21,1.6-2.54,1.17-.5,3.46.71,5.49,1.79,2.64,1.4,5.38,2.85,8.13,2.42l2.89-.46-1.8-2.31c-5.14-6.57-11.67-17.11-13.81-30.16,9.36-13.87,20.2-26.28,30.69-38.28,14.58-16.67,29.65-33.92,40.26-54.8a31.43,31.43,0,0,0,4-7.62c1.85-4.4,3.61-8.57,7.54-10,2.93,4,1.23,8.59-.71,13.84-1.59,4.29-3.23,8.73-2.21,13.12l.7,3,2.19-2.2a126.6,126.6,0,0,0,19.48-25.12l.09-.16c4.59-9.61,8.43-19.65,12.14-29.36,1.62-4.22,3.29-8.59,5-12.86l.25.23a8.76,8.76,0,0,0,1.12.89c.72,11.1-1.73,22-4.11,32.62-1.06,4.76-2.07,9.25-2.78,13.68l3.13,1.23c10.83-16.08,13.57-35.67,16.21-54.61,1-7.45,2.11-15.14,3.67-22.48,2-.34,3.11,1,4.73,3.18.4.55.79,1.07,1.19,1.52l3,3.42L1135,463c0-3,.24-5.83.44-8.6.6-8.37,1.17-16.27-3.17-24.56a14.72,14.72,0,0,0-3.48-3.6c-2.2-1.8-3.49-3-3.23-5.15C1127.32,419.69,1129.54,419.86,1131.88,420Zm-5.3,8.85a12.12,12.12,0,0,1,2.67,2.63c3.83,7.33,3.32,14.42,2.74,22.63-.1,1.35-.2,2.72-.28,4.12a6.73,6.73,0,0,0-7.71-1.89l-.9.32-.21.93c-1.7,7.78-2.83,15.91-3.93,23.76-2.09,15-4.23,30.33-10.43,43.8.21-.94.43-1.9.64-2.87,2.51-11.17,5.1-22.71,4.1-34.69l0-1.41-1.42-.15a3.61,3.61,0,0,1-.7-.56,4,4,0,0,0-2.93-1.38,3.31,3.31,0,0,0-2.29,1.29l-.18.21-.1.26c-1.82,4.51-3.58,9.12-5.28,13.57-3.68,9.62-7.49,19.56-12,29A126.35,126.35,0,0,1,1072.19,550a36.18,36.18,0,0,1,2.2-7.44c2.15-5.82,4.59-12.42-.63-18.16l-.67-.73-1,.21c-6.39,1.39-8.82,7.17-11,12.27a28.12,28.12,0,0,1-3.63,6.91l-.22.32c-10.42,20.58-24.72,36.94-39.86,54.27-10.7,12.24-21.77,24.9-31.34,39.18l-.37.56.1.66a69.36,69.36,0,0,0,11.86,28.7c-.71-.33-1.43-.72-2.15-1.1-2.85-1.5-5.78-3.06-8.47-1.9-1.72.75-2.92,2.45-3.68,5.21l-.12.43,1.46,5.85,11.9,12.34c-2.31-.52-4.69-.85-7-1.18a58.37,58.37,0,0,1-7.19-1.28l-.23-.06h-2.41l-.51.79c-1.76,2.76-2,5.24-.79,7.37,1,1.74,2.81,2.88,4.54,4,1.54,1,3.13,2,3.51,3.13l.1.33,8.09,9.24c-2.06,4.06-.46,8.67.85,12.44,1,2.88,1.94,5.6,1.08,7.15-.53.94-1.84,1.65-3.9,2.1l-.44.1-.33.3a20.5,20.5,0,0,0-4.71,6.12c-.79-1.44-1.52-2.9-2.25-4.34-2.79-5.55-5.68-11.29-11.43-15l-.38-.25-.46,0c-2.29-.12-4.72-.5-7.3-.9-7.25-1.13-15.46-2.4-21.75,2.51l-9.24,9.22c-3.7-5.08-9.55-10.82-17.8-12.64-6.21-1.59-9.95,1.83-13,4.58-3.35,3.07-5.37,4.92-10,1.32l-.27-.17c-10.13-5.22-18.84,1.48-25.2,6.37-.84.65-1.64,1.27-2.41,1.83L852.46,724c2.83-4,6.09-8.88,5.34-15.06l-.12-1-.88-.4c-7.56-3.38-11.83.35-15.49,4,1.17-1.82,2.41-3.62,3.68-5.45,3.64-5.25,7.4-10.68,9.63-17.55l.18-.52-.17-.53a6,6,0,0,0-3.6-3.86,6.7,6.7,0,0,0-5.71.4l-11,8.41c19.3-43.5,41.36-91.81,73.29-131.08l.53-.64-.19-.82c-.15-.69.16-1.08,1.82-2.28s4.52-3.27,3.09-7.24l0-.11a6.94,6.94,0,0,0-4.42-4,10.25,10.25,0,0,0-8,1.36l-.22.14L900,548C870.77,582.6,851,623.7,832,663.45c-3.82,8-7.76,16.18-11.73,24.23l-74.59,7.88c-1.92-1.63-5.24-4.3-8.22-3.49a4.65,4.65,0,0,0-3,2.79c-8.64,4-19.45,1.2-29-1.3-2.24-.58-4.36-1.14-6.45-1.61l-.21-.05h-.23c-17.74.63-29.12-11.53-40.13-23.27-2.26-2.4-4.58-4.88-6.92-7.2a9.91,9.91,0,0,1,2.2-3c1.74-1.87,4.37-4.7,1.68-8.55l-.47-.66-.8-.07c-3.93-.34-8.12,1.23-12.08,3.37,10.67-21,23.57-42.06,33.85-58.41l1.06-1.68-1.82-.81c-4.45-2-7.68-.67-10.42,1.23,5.1-9,11.32-18.28,17.83-28,5.56-8.32,11.31-16.91,16.32-25.33l.68-1.15-.88-.88c0-.11-.12-.34-.17-.5a3.68,3.68,0,0,0-1.73-2.44,3,3,0,0,0-2.32,0c-5.74,1.15-9.18,4.4-12.5,7.55a44,44,0,0,1-4.54,3.92c3.81-5.37,7.34-10.91,10.78-16.32,6.49-10.19,12.62-19.81,20.39-28.29l16.57-24.82V476a4.16,4.16,0,0,0-1.46-3.43c-1.36-1.09-3.28-1.09-5.06-.82,5-8.79,11.24-16.42,17.3-23.83,5.91-7.23,12-14.7,16.9-23.15l.45-.79-.39-.81c-2.06-4.32-6.44-2.79-8.79-2-.46.16-.88.31-1.26.41l-.43.11-.32.31c-17.94,17-35,40.7-49.33,68.67l-.35.69.27.72c.61,1.56,1.65,3.7,3.64,4.12a3.47,3.47,0,0,0,2.21-.26c-1.29,1.45-2.75,2.86-4.26,4.31-3.46,3.33-7,6.77-9.51,11.39-2.51,3.67-5.11,7.36-7.63,10.92-8.17,11.59-16.62,23.57-22.83,36.35l-.32.65.24.67a14.42,14.42,0,0,1,.56,3c.28,2.4.6,5.12,3.1,7.09l.35.27.43.08c4.65.78,6.22-1.93,7.37-3.92.94-1.65,1.56-2.59,3.18-2.92l.25-.05.22-.12c.29-.15.58-.32.85-.48L644.16,602v11.9l2-.38a8,8,0,0,1,2.07,0,12.39,12.39,0,0,0,2.15.07c-3,7.58-7.7,14.13-12.62,21-5.9,8.27-12,16.82-15.27,27.56l-.06.33a5.91,5.91,0,0,0,.44,2.64,2.25,2.25,0,0,1,.23,1.41l-.34,1.25,1.11.67a10.73,10.73,0,0,0,7.5,1.88l-21.79,43-.14.42a6.34,6.34,0,0,0,.39,3.63,2.85,2.85,0,0,1,.26,1.84l-.54,1.89,1.94.29a9.13,9.13,0,0,1,2.51,1,11.81,11.81,0,0,0,3.55,1.4c-6.73,12.8-12.82,25.93-18.73,38.67q-3,6.45-6,12.88l-.12.35a9.73,9.73,0,0,0,1,7.51A8.87,8.87,0,0,0,599.2,787a141.82,141.82,0,0,1-6.28,13c-5.63,10.72-11.46,21.8-9.5,34.07l.12.8.7.41c3.68,2.18,7.49,1.52,11.22.55L574.77,876l-1,8.21a27.49,27.49,0,0,0-15.83.59l-.83.27-.27.84c-1,3-.91,5.37.18,7.12,1.64,2.64,5.15,3.17,8.54,3.68,2.73.41,5.55.84,7.47,2.31,9.69,6.51,9.17,21.73,8,30.37a89.42,89.42,0,0,0-3,10.06c-1.81,7-3.52,13.54-8.29,18.31l-.3.3-.13.4c-2.13,6.69,3,9.42,6.4,11.23a14,14,0,0,1,2.74,1.7l.46.43.62,0c15.68.94,30.21-8.21,37-23.34l0-.14c5-14.18,4.78-30.89-.4-42.81.69-2,1.07-2.59,1.73-2.54,4.59.38,8.18,4.8,11.35,8.7l.26.32c4.65,15.74,2,34.95-6.7,49.07-6.16,8.51-15.24,13.11-24,17.56-7.35,3.72-14.94,7.57-20.91,13.68a24.72,24.72,0,0,1-3.57,1.75c-2.84,1.23-5.77,2.49-6.84,5.15l-.7,1.73,1.78.55c8.84,2.76,16.3-.44,23.51-3.53,4.77-2,9.69-4.15,14.93-4.45l.35,0,.31-.15c17.66-8.68,31.2-25.29,35.79-43.72,4,2.28,6.1,6.1,8.48,10.44.34.63.69,1.25,1,1.88,3.33,35.37-14.7,48.05-22.63,51.86l-.16.09c-19.07,11.86-48.6,16.54-68.16,2.55l-.18-.12a17.68,17.68,0,0,1-3.19-3c-2.65-2.84-5.64-6-9.15-5.81a6.46,6.46,0,0,0-4.77,3.12l-.52.73.3.84c3.51,9.79,13.48,15.86,22.28,21.21,1.09.67,2.18,1.33,3.23,2l.29.14c20.69,8.12,46.72,3.22,69.67-13.11,10.52-4.26,19.55-14.72,23.13-26.57,4.86,4.24,5.31,11.57,5.31,20.54-3.65,18.41-21.22,41.4-59.62,51.1-4.25-1.21-8.41-1-12.44-.72-4.73.28-9.2.55-13.51-1.53l-.32-.12c-9.44-2.42-19.49-6.86-31.6-14-1.83-1.89-3.69-3.73-5.49-5.51-6.52-6.44-12.68-12.52-17-20.61l-.2-.36-.34-.24c-2.64-1.83-8.17-1.72-10.82-.84l-.94.31-.2,1c-3.29,15.29-3.22,38,7.78,51.67l.14.15c5.85,5.73,22.94,17.5,55.47,3.61,5.64.24,10.8,1.75,15.78,3.21,2.6.76,5.07,1.48,7.6,2V1090h-2.2l-.25,1.43a3.55,3.55,0,0,0,.51,2.87,1.54,1.54,0,0,0,.17.19,11.26,11.26,0,0,0-.81,2.22c-.13.44-.27.9-.37,1.13l-.15.34v1.37c-16.81,12.65-34,17.44-52.53,14.66-42.82-7.79-67.78-50.94-76.18-85.61-11.7-38.92-2.41-85,7.44-116.81l.07-.31c1.52-13.32,6-25.78,10.32-37.84,2.2-6.14,4.48-12.49,6.34-18.86a6.31,6.31,0,0,1,1.66-2.17c1.38-1.36,3.7-3.64,1.25-7.38l-.16-.24-.23-.18a7.74,7.74,0,0,0-4.86-1.6,19.81,19.81,0,0,0-6.38,1.44l-1.49.51-.35.11-.27.24a10.85,10.85,0,0,0-1.21,1.24l13.88-40.27a7,7,0,0,1,2.23-2.57c1.81-1.53,4.3-3.63,2.74-7.93l-.19-.37c-1.91-2.86-5.32-2.08-7.35-1.6-.42.09-.81.19-1.16.24l-.82.13-.42.72a21.76,21.76,0,0,1-4.21,5.47c5-18.73,11.84-33.74,20.73-45.76l.2-.34c1.14-2.67-.76-4.28-1.78-5.15a5.19,5.19,0,0,1-.85-.83l-.68-1-1.18.31a41,41,0,0,0-13.37,6.29c.84-2.2,1.66-4.4,2.46-6.57,5.62-15.09,11.43-30.7,21.88-41.5l.25-.26.13-.35c.87-2.39-.7-3.94-1.63-4.87a7.07,7.07,0,0,1-.54-.56l-.54-.63-.82,0c-6.42.2-10.48,4.55-14.06,8.38a43.39,43.39,0,0,1-3.86,3.83,250.52,250.52,0,0,1,25.61-51.72l.28-.42v-.52c0-.18,0-.36,0-.54,0-1.33.11-3.56-2.2-4.71l-.88-.45-1.4.92c-7.9,5.19-14.11,9.26-20.31,15.21,8.41-24.11,18.58-50.86,32.6-74.66l.5-.84-.47-.87a4.38,4.38,0,0,0-3.88-2.25,8.27,8.27,0,0,0-6.43,3.26l-13.19,14.1c6.15-21.85,14.84-40.89,25.88-56.69l.24-.33.06-.41c.48-3.38-1-6.08-3.72-6.86l-.28-.08-.29,0c-7.31.44-10.77,5.72-14.12,10.83l-.76,1.14c2.66-7.29,6.13-14.55,9.76-22.11,4-8.43,8.21-17.15,11.19-26l.48-1.41-1.33-.67c-5.07-2.6-8.87-.23-12,2.85,1.27-2.7,2.5-5.4,3.71-8.05,6.35-13.92,12.34-27.07,22.4-38l.82-1-.65-1.1c-.84-1.44-2-3.43-4-3.83a4.19,4.19,0,0,0-3.4.91l-11.55,8.37c.65-1.16,1.31-2.34,2-3.52C541,440.2,555,415.4,572.73,396.56l.42-.44,0-.61c.12-1.53.13-3.74-1.23-5.12a3.79,3.79,0,0,0-3.07-1.07l-4.43.72-.39.39c-1.45,1.43-2.88,2.82-4.29,4.19-3.65,3.56-7.2,7-10.62,10.58C573.29,361,603.82,311.71,647,268.32a341.75,341.75,0,0,1,47.67-30.27c-2.57,2.37-5.79,5.56-3.87,9.84l.11.24.17.19c3.94,4.48,10.42,3.12,15.13.38,17.44-9.43,37.38-16.41,62.44-21.8-2.6,3.13-5.21,6-7.93,8.94-2,2.22-4.13,4.52-6.4,7.11l-.67.76.35.95c2.15,6,7,5.47,10.58,5.07,1-.1,1.93-.21,2.82-.21l.42-.05c5-1.26,9.88-2.91,14.61-4.5,8.2-2.77,16-5.41,24.59-6.3-1.95,1.69-4.15,3.25-6.3,4.78-6.34,4.5-12.9,9.15-13.34,17.28l-.06,1.12,1,.51c7.46,3.78,16,2.71,24.17,1.67a79.06,79.06,0,0,1,13.77-.94,54.32,54.32,0,0,1-7.7,5.82c-4.57,3.07-9.3,6.23-12.35,11.52l-.27.47,0,.54c.7,8,8.4,8.25,14,8.43a31.81,31.81,0,0,1,5.9.53l.25.06,12.89-.8c-1.05.41-2.14.79-3.22,1.16-6.54,2.28-14.67,5.11-12.45,15.62l.12.57,5.87,5.13,26.46.48c-5.32,2.09-10.81,4.71-12.57,10.32l-.3,1,.72.73c4.58,4.7,11.16,5.1,17.51,5.49,1.18.08,2.34.15,3.46.24-5.95,2.28-12.64,4.89-15.73,11.57l-.51,1.12.89.85c5.29,5.06,13,4.62,20.5,4.19,1.83-.1,3.69-.21,5.5-.23-2.19,1.39-4.47,2.55-6.83,3.76a56.23,56.23,0,0,0-12.3,7.72l-.37.33-.14.48c-1,3.51,1.28,6.36,4,7.63l.22.08c8.9,2.68,19.59,2.34,27.05,1.56-.51.3-1,.59-1.57.89-5.35,3-11.41,6.41-10.57,13.47l.07.59.42.42c5.43,5.43,11.9,3.66,18.15,1.95a45.82,45.82,0,0,1,8.07-1.69c-4,3.14-8.42,7-9.33,12.5l-.11.64.34.55c4.38,7.06,11.32,5.37,17.44,3.87,1.48-.36,2.91-.71,4.28-.94-1.79,2.08-3.5,4.34-4,7.7l-.14.94.72.61c3.91,3.38,7.58,1.19,10.26-.42a12.23,12.23,0,0,1,3.58-1.67l.44-.08.34-.29c2.45-2,4.91-4.1,7.39-6.18,28.44-23.9,60.53-50.82,102.88-49.48-1.88,1.61-3.56,3.47-3.9,5.63-3.9,2.59-8.65,5.82-9.34,10.64l-.12.86,2.59,2.57,1-.3c14.23-4.4,30.15-9.33,47.53-8.1-3.59,2.26-6.21,5.3-8.92,8.47-1.38,1.6-2.79,3.25-4.38,4.83l-1.21,1.22,6.07,6.06h.72a114.86,114.86,0,0,0,13.63-1.25c6.9-.92,13.5-1.8,19.91-.82-4.57,1.86-9.94,4.93-12.17,9.53l-.33.69.29.72c2.66,6.4,9.35,6.83,15.25,7.21a32.49,32.49,0,0,1,8,1.14c2,1.12,4,2.16,6,3.18,6.29,3.2,12.27,6.25,16.33,11.55l-.4,0c-2.87-.23-6.43-.49-9.38,2.33l-.38.36-.12.51C1121.23,424.51,1124.2,426.94,1126.58,428.89Z"/><path class="cls-2" d="M394.14,344.54c-19.38,9.45-20.47-19.23-38.44-16.13-12.87,6.36-16.28,20.77-16.13,34.73,2.33,6.82,5.27,15,13,18,5,2,12.25,2,16.13-2.47l-5.59-.62c-3.41-2-5.57-5.59-7.43-8.68-2.64-5-.78-11.63,3.09-14.89,9-.93,14.27,5.43,18,12.4,4.8,7.29-.47,24.34,11.78,22.94,8.05-1.7,8.68-10.22,8.05-18,5.59-4.5-5.57-9.15,0-13.65,4.34-2.16,4.34,3.57,6.83,4.34v-26C401,339.41,397.24,341.89,394.14,344.54Z"/><path class="cls-5" d="M440.64,332.75c.16,5.12-1.7,13.64-8.06,17.36-3.41,1.7-8.21,2.33-11.78-.62-3.41-6.51-4-14.57-1.86-20.46l-7.44,6.2c-1.55,12.87-3.1,28.83,3.72,39.68,2.33,4.5,7.28,6.2,12.4,6.2,7.9-2.78,11.32-10.22,15.51-16.74C450.1,354.45,443.59,342.36,440.64,332.75Z"/><path class="cls-2" d="M453.05,294.93c-3.57-4.19-7.91-10.39-14.89-10.54-.3,2.16-2.17,1.55-3.72,1.23-10.07,9.31-17.36,24.5-18.6,36,4.8-2,9.61-3.87,15.5-3.1,11,2.79,19.53,13.18,21.08,22.94C456.3,327.48,458.47,308.88,453.05,294.93Z"/><path class="cls-5" d="M428.86,340.81h1.86a9.65,9.65,0,0,0,1.86-9.92C427,330.73,428.09,337.4,428.86,340.81Z"/><path class="cls-6" d="M293.68,337.1c-4.8-5.58-13-3.1-19.84-3.72-29.45,8.68-52.39,34.26-70.07,58.28C177.11,437.4,157,485.92,151.69,540.48a178.35,178.35,0,0,1,20.46,31.62c13.95-22.94,24.8-50.53,45.26-68.2,11-51,41.7-95.65,69.45-136.41C292.6,359.43,299.26,346.87,293.68,337.1Z"/><path class="cls-7" d="M111.39,480.33c-13.18,12.55-18.76,30.54-24.8,45.26l22.32-24.18,3.71-1.24c11.63,7.91,16.9,22.48,22.33,34.1,3,.16,6.2-.46,8.68.63l11.17-50.85C142.7,477.23,125.5,478.78,111.39,480.33Z"/><path class="cls-7" d="M281.29,541.1c-1.71-11.79-3.57-23.57-8.06-34.11-7.76-4.81-18.3-6-28.53-6.2,6.67,6.67,9.46,17.51,14.26,25.42,10.08,31.47,16.43,64.49,22.33,96.12,2.16,3.4.62,8.67,3.72,11.15-.63,4.5,3.87,9.46,0,13-1.86.47-4.35,2.33-5.58-.62-4.81-22.62-7.45-46.19-12.4-68.82-8.38-25.42-11.63-54.1-31-73.79-6.05-.16-9.3,3.41-13.64,6.2-21.24,19.69-31.94,47.44-46.5,72.55l1.86,8.68c-9.47,3.1-22.33,1.55-32.87,3.72l.62,4.34c13.49-4.5,31.32-4.5,45.27-2.48A318.76,318.76,0,0,1,205,561.55c-7.91,10.08-14.11,21.4-21.08,32.87l-3.11.62c-.77-1.86-3.72-1.24-3.09-3.72,6.82-16.59,17-28.37,26.66-42.17,5.73-5.57,11.16-18.29,22.94-14.25,3.41,2.63,5.58,6.82,7.44,10.54,11.94,38.9,17.51,82.62,42.16,114.09,3.42-3.11,8.38-5.9,9.31-11.17C292,611,286.71,576.13,281.29,541.1Z"/><path class="cls-7" d="M161.61,567.14c-3.56-8.22-15.65-5.12-23.56-5C109.22,568.84,91.23,592.4,79.14,618c-2.94.93-4.34-1.39-6.2-3.1,7.13-21.55,22.94-42.32,42.17-54.56,11.47-4.81,24-8.84,37.82-6.2L143.63,543C121,541.87,102.24,552.72,86,564.66c-35.19,29-28.21,84.79-25.42,128.35L63,694.87c8.53,1.55,13.33-2,16.75-7.44,9.14-28.53,15.34-58.6,32.85-83.09,13.49-15.66,35.35-20.46,56.43-20.46C167.81,577.83,164.41,572.56,161.61,567.14Z"/><path class="cls-3" d="M481.77,693.64c-5.11-.93-5.89-5.42-6.2-9.92,3.72-17.82,15.2-32.4,20.47-49.6l-4.34,3.09c-3.72.93-5.13-3.72-6.21-5.57-14.1,11.62-32.4,18.13-51.46,20.45-25.58,4.2-47.59-9.29-62.63-27.28-1.55,5.9-5.12,6.05-2.48,13-8.84,7.59-20.93,7.28-31.62,10.54-14.88,1.7-29.46,9.61-44.65,5-3.25,6.51-8.21,9.92-13.64,13.64-6.2,2.48-10.08-5.74-13.64-9.3-4.19,7.29-11.78,17.05-20.46,18.6-1.86-.16-2-2.17-1.86-3.72,8.06-7.44,15.5-15.34,16.74-25.42C249.1,626.52,243.2,603.57,236.22,582c-18.29,4.8-35.18,18.45-42.78,36l5-4.34c8.22,7.91-4.34,11.79-6.2,18.61a9,9,0,0,0,9.92,6.81c12.87-3.72,21.55-15.19,29.15-26.66h1.86c5.73,16.9-20,22.48-16.13,40.31,2.95,6.5,11.16,2.79,16.13,5.58,1.23,2.33.62,5.89-2.48,6.2-5.43.77-12.25,1.71-16.12-3.1-5.43-3.1-4.66-10.54-5.59-15.5-5.73,3.41-15.19,1.7-19.22-1.24,5.89,11.78.62,25.58-7.44,34.1L191,686.2c1.86,5,4.34,10.39,2.48,16.13,6.51.15,10.23,6.81,13.64,10.54,4,9.45.47,21.23-1.24,29.76a15.89,15.89,0,0,0,10.55,3.1c15-4.65,27.28-13.8,37.2-25.43,9.45-8.68,4.18-23.4,11.78-32.86a6.21,6.21,0,0,1,9.3,0c8.52,11.48,22.79,18.29,32.87,24.8A260.23,260.23,0,0,0,416.66,747c-1.55-6.66-4.34-12.86-5-19.83,1.7-5.27,7.28-4.19,11.78-4.34a66.85,66.85,0,0,0,36,14.26c8.52-.62,23.56,2.48,25.42-7.44-3.25,1.7-6.5-.32-8.68-3.11-1.39-16.27,11.79-28.36,16.74-40.91C490,689.15,486.73,694.88,481.77,693.64Z"/><path class="cls-4" d="M492.43,638.8l-.32.08c-4,1-6-2.26-7.2-4.57-13.27,10.34-30.74,17.06-50.67,19.49-13,2.14-38.23,1.54-62.23-25.64-.37.8-.75,1.47-1.09,2.07-1.22,2.12-1.83,3.18-.39,7l.43,1.13-.91.78c-6.45,5.54-14.47,7.09-22.22,8.59a99.18,99.18,0,0,0-10,2.29l-.31.07a112.7,112.7,0,0,0-14.47,3c-9.52,2.42-19.36,4.92-29.5,2.28-3.44,6.11-8.36,9.48-13.54,13l-.33.18c-5.94,2.37-10-2.89-13-6.73-.34-.43-.67-.86-1-1.26-3.66,5.86-11.09,15.72-20.42,17.39l-.22,0-.23,0a3.53,3.53,0,0,1-2.48-1.26,5.75,5.75,0,0,1-.95-4.35l.07-.65.48-.44C249,664.76,256.6,657,258,647.45c-8.32-16.17-13.75-33.77-19-50.8-1.28-4.13-2.59-8.37-3.92-12.52a65.6,65.6,0,0,0-36.34,27.47l.84.81c2.19,2.1,3.26,4.15,3.29,6.28.05,3.32-2.43,5.86-4.84,8.32-1.67,1.7-3.39,3.46-4,5.3a7.31,7.31,0,0,0,7.81,5.06c12.47-3.68,21-15.3,28-25.91l.51-.77h4l.4,1.17c3.23,9.52-2.44,15.72-7.92,21.73-5,5.52-9.8,10.74-8.19,18.58,1.31,2.71,3.83,3,7.79,3.12,2.58.11,5.24.22,7.53,1.51l.44.24.24.45a6.68,6.68,0,0,1,.11,6.13,4.86,4.86,0,0,1-3.94,2.59c-5.41.78-12.88,1.85-17.43-3.48-4.71-2.89-5.26-8.48-5.7-13,0-.44-.09-.87-.13-1.29-4.65,1.71-10.35,1.19-14.63-.29,3.16,10.87-1.39,22.54-8.19,30.44l7.68,6.58.67,1.76c1.6,4.19,3.4,8.88,2.5,13.91,4.79,1,8,5.06,10.69,8.37.73.91,1.42,1.77,2.07,2.48l.2.22.12.27c3.68,8.64,1.45,18.84-.34,27q-.3,1.37-.57,2.64a14.13,14.13,0,0,0,8.31,2.15c13.59-4.24,25.77-12.6,36.21-24.83l.14-.15c4.59-4.21,5.38-10.09,6.21-16.3.76-5.7,1.55-11.59,5.4-16.38l.12-.13a8.21,8.21,0,0,1,5.87-2.6h0a8.25,8.25,0,0,1,5.87,2.6l.16.19c6.49,8.73,16.54,14.76,25.41,20.07,2.48,1.49,4.83,2.9,7,4.31A259.8,259.8,0,0,0,414.4,745c-.44-1.59-.93-3.18-1.4-4.72a62.63,62.63,0,0,1-3-13l0-.35.11-.33c1.81-5.62,7.21-5.57,11.16-5.53.75,0,1.48,0,2.2,0l.64,0,.5.4a65.44,65.44,0,0,0,34.89,13.88c1.92-.13,4.08-.09,6.36,0,7.78.15,13.75,0,16.24-3.35-2.53-.13-5.1-1.64-7.23-4.37l-.31-.4,0-.51c-1-11.45,4.95-21,10.18-29.48.47-.75.93-1.49,1.38-2.23a7.11,7.11,0,0,1-4.69.37c-6.78-1.22-7.25-7.89-7.5-11.47l0-.24.05-.23c2.12-10.11,6.69-19.25,11.12-28.09,2.7-5.39,5.47-10.92,7.65-16.63Z"/><path class="cls-1" d="M497.68,634.62l1.49-4.85L491,635.59c-1.31.17-2.15-1.06-3.37-3.55-.23-.48-.44-.92-.65-1.27L486,629l-1.56,1.29c-13,10.68-30.45,17.62-50.65,20.08-29.63,4.86-50.95-14.63-61-26.68l-2.14-2.56-.85,3.22a16,16,0,0,1-1.81,4.14c-1.25,2.18-2.44,4.26-1,8.75-5.6,4.36-12.47,5.68-19.72,7.09A102.66,102.66,0,0,0,337,646.68a115,115,0,0,0-14.78,3.08c-9.93,2.52-19.31,4.9-29,1.93l-1.39-.42-.66,1.3c-3,6.06-7.6,9.24-12.91,12.87-3.19,1.15-5.69-1.64-8.86-5.71a36.87,36.87,0,0,0-2.75-3.27L265,654.87l-1.12,2c-2.13,3.7-9.74,15.82-19,17.71a2.21,2.21,0,0,1-.2-1.17c7.51-7,15.46-15.31,16.78-26l.06-.53-.24-.47c-8.32-16-13.76-33.67-19-50.72-1.44-4.66-2.93-9.47-4.44-14.13l-.5-1.55-1.57.41c-19.43,5.11-36.26,19.26-43.93,36.95l2.72,2,3.69-3.24a4.52,4.52,0,0,1,1.17,2.69c0,1.88-1.86,3.81-3.86,5.86s-4.26,4.35-5,7.2l-.11.41.09.42a10.72,10.72,0,0,0,11.76,8.16l.32-.06c13.21-3.82,22.08-15.37,29.34-26.21,1.5,6.73-2.76,11.4-7.64,16.75-5.19,5.69-11.08,12.14-9,21.81l.11.35c2.24,4.94,7,5.14,10.86,5.3a16.13,16.13,0,0,1,5.51.83,3.19,3.19,0,0,1-.08,2.44,1.51,1.51,0,0,1-1.32.79c-5,.72-11.24,1.61-14.53-2.47l-.21-.25-.28-.16c-3.42-2-3.85-6.3-4.26-10.5-.14-1.35-.26-2.63-.49-3.83l-.45-2.42-2.12,1.26c-5.22,3.1-13.89,1.36-17.32-1.15l-2.56,2.16c5.56,11.11.41,24.15-7.15,32.15l-1.24,1.31,9.72,8.33.36.95c1.69,4.42,3.44,9,1.94,13.63l-.72,2.19,2.31.06c4.39.1,7.47,3.94,10.2,7.33.69.86,1.34,1.68,2,2.42,3.09,7.58,1,17.06-.65,24.7-.29,1.32-.56,2.59-.8,3.79l-.21,1.06.85.65a17.58,17.58,0,0,0,11.72,3.44l.38-.07c14.27-4.41,27-13.11,37.93-25.87,5.43-5,6.34-11.79,7.21-18.31.73-5.43,1.42-10.57,4.62-14.59a4.82,4.82,0,0,1,3.36-1.53h0a4.84,4.84,0,0,1,3.35,1.51c6.89,9.22,17.21,15.41,26.32,20.86,2.45,1.48,4.77,2.87,7,4.29a263,263,0,0,0,109.85,34.95l2.36.2-.54-2.31c-.58-2.48-1.33-4.91-2-7.26a61.19,61.19,0,0,1-2.83-12c1.06-2.74,3.65-2.86,7.74-2.82h1.7a69.06,69.06,0,0,0,36.41,14.24h.26c1.79-.13,3.93-.08,6.19,0,8.5.17,19.09.38,20.81-8.8l.65-3.48-3.14,1.64c-2.61,1.37-5-.86-6.21-2.24-.66-10.09,4.61-18.61,9.72-26.85a82.09,82.09,0,0,0,6.94-12.77l-2.92-1.73c-.49.59-1,1.24-1.5,1.91-2.85,3.71-5.08,6.28-8,5.55-3.53-.64-4.42-3.35-4.78-8.11,2.05-9.58,6.49-18.44,10.78-27C491.63,649.74,495.29,642.42,497.68,634.62Zm-23.8,48.75-.05.23,0,.24c.25,3.58.72,10.25,7.5,11.47a7.11,7.11,0,0,0,4.69-.37c-.45.74-.91,1.48-1.38,2.23-5.23,8.45-11.16,18-10.18,29.48l0,.51.31.4c2.13,2.73,4.7,4.24,7.23,4.37-2.49,3.32-8.46,3.5-16.24,3.35-2.28,0-4.44-.09-6.36,0a65.44,65.44,0,0,1-34.89-13.88l-.5-.4-.64,0c-.72,0-1.45,0-2.2,0-4,0-9.35-.09-11.16,5.53l-.11.33,0,.35a62.63,62.63,0,0,0,3,13c.47,1.54,1,3.13,1.4,4.72A259.8,259.8,0,0,1,308.47,710.8c-2.18-1.41-4.53-2.82-7-4.31-8.87-5.31-18.92-11.34-25.41-20.07l-.16-.19a8.25,8.25,0,0,0-5.87-2.6h0a8.21,8.21,0,0,0-5.87,2.6l-.12.13c-3.85,4.79-4.64,10.68-5.4,16.38-.83,6.21-1.62,12.09-6.21,16.3l-.14.15c-10.44,12.23-22.62,20.59-36.21,24.83a14.13,14.13,0,0,1-8.31-2.15q.27-1.27.57-2.64c1.79-8.2,4-18.4.34-27l-.12-.27-.2-.22c-.65-.71-1.34-1.57-2.07-2.48-2.66-3.31-5.9-7.34-10.69-8.37.9-5-.9-9.72-2.5-13.91l-.67-1.76-7.68-6.58c6.8-7.9,11.35-19.57,8.19-30.44,4.28,1.48,10,2,14.63.29,0,.42.09.85.13,1.29.44,4.51,1,10.1,5.7,13,4.55,5.33,12,4.26,17.43,3.48a4.86,4.86,0,0,0,3.94-2.59,6.68,6.68,0,0,0-.11-6.13l-.24-.45-.44-.24c-2.29-1.29-4.95-1.4-7.53-1.51-4-.17-6.48-.41-7.79-3.12-1.61-7.84,3.15-13.06,8.19-18.58,5.48-6,11.15-12.21,7.92-21.73l-.4-1.17h-4l-.51.77c-7,10.61-15.56,22.23-28,25.91a7.31,7.31,0,0,1-7.81-5.06c.66-1.84,2.38-3.6,4-5.3,2.41-2.46,4.89-5,4.84-8.32,0-2.13-1.1-4.18-3.29-6.28l-.84-.81a65.6,65.6,0,0,1,36.34-27.47c1.33,4.15,2.64,8.39,3.92,12.52,5.25,17,10.68,34.63,19,50.8-1.41,9.55-9,17.31-16.13,23.85l-.48.44-.07.65a5.75,5.75,0,0,0,.95,4.35,3.53,3.53,0,0,0,2.48,1.26l.23,0,.22,0c9.33-1.67,16.76-11.53,20.42-17.39.33.4.66.83,1,1.26,3,3.84,7.08,9.1,13,6.73l.33-.18c5.18-3.55,10.1-6.92,13.54-13,10.14,2.64,20,.14,29.5-2.28a112.7,112.7,0,0,1,14.47-3l.31-.07a99.18,99.18,0,0,1,10-2.29c7.75-1.5,15.77-3.05,22.22-8.59l.91-.78-.43-1.13c-1.44-3.82-.83-4.88.39-7,.34-.6.72-1.27,1.09-2.07,24,27.18,49.2,27.78,62.23,25.64,19.93-2.43,37.4-9.15,50.67-19.49,1.18,2.31,3.23,5.57,7.2,4.57l.32-.08.22-.15c-2.18,5.71-4.95,11.24-7.65,16.63C480.57,664.12,476,673.26,473.88,683.37Z"/><path class="cls-2" d="M120.07,631c-.77,3.72-1.71,9,1.86,11.78,10.7,10.38,28.37,4.19,40.3.62,5.9-.62,9.92-9,14.26-8.68,13.18-3.87,5.89-22,14.88-28.53h0C164.56,599.53,132.93,607,120.07,631Z"/><path class="cls-2" d="M184.56,651.47a9.43,9.43,0,0,0-8.07-6.2c-12.08,7.28-25.26,11.77-40.3,11.77-14.11,7.76-30.07,21.24-28.52,40.31.15,5.43,5.27,8.37,9.3,11.16,20.77-.15,37.2-9.77,51.46-22.94,2.48-3.1,10.7-14.26,9.92-16.74,3.88-1.87,5.12-8.37,6.21-11.16A25.74,25.74,0,0,0,184.56,651.47Z"/><path class="cls-5" d="M225.48,544.82c-15,13.18-18.44,34.41-26.66,52.09,10.38-9.93,21.55-19.85,37.2-19.22C232.46,566.83,231.07,554.9,225.48,544.82Z"/><path class="cls-2" d="M178.35,686.18c-6.81,9.3-17.67,16.75-26,22.32-14.42,3.57-24.81,13.34-29.77,27.91-1.71,6.2-2.64,15.19,3.1,19.84,8.06,2.79,16.12-1.86,22.95-5.58,16.58-14.57,36.89-32.09,37.82-57h0C184.87,689.59,181.76,688.35,178.35,686.18Z"/><path class="cls-3" d="M836.25,729l-11.78,11.17h-3.73c-1.24-2.64-5.27-3.72-3.72-8.06L829.42,711c-5.42,2.48-5.42,9-12.4,9.3-6.66-6-3.25-14.88-.62-21.7a12.24,12.24,0,0,0-7.44,3.72c-24.18,6.36-50.53,7.9-76.26,10.54-10.08,13.33-20.47,25.58-26.67,41.54l12.4-4.95c1.4,1.08,5.43,2.63,3.1,5.58-7.28,10.69-19.53,20.77-14.88,33.48,31.47-2.33,63.71-3,95.49-4.34,11,4,3.41-11,11.79-13.64.93-13.8,12.4-23.1,18.6-34.73C834.39,733.16,840.12,733.16,836.25,729Z"/><path class="cls-2" d="M192,711a109,109,0,0,1-24.19,33.48c-4.65,7.13-18.29,11.47-13,23.57,4.34,2.32,8.36,5.73,14.26,4.34,18.75-8.68,32.85-29.61,32.85-52.71C200.37,715,197,712.39,192,711Z"/><path class="cls-2" d="M968.94,739.51c.15-3.41-6.67-10.38-13-11.16-27.59,19.07-30.38,55.81-27.9,89.29,3.72,0,4.18,4.5,2.48,6.82,1.39,6.52,6.2,12.72,13,14.26,11.31,4.5,16.74-4.34,22.94-11.15C982.74,802.92,977.62,766.64,968.94,739.51Z"/><path class="cls-2" d="M926.77,737.65c-2.48-3.71-7-8.21-12.4-7.43-4,3.56-12.24,6.66-11.77,14.26-18.46,18.75-21.24,48.52-19.23,74.41.62,4.49,7.44,14.88,7.44,14.88,10.08,7,20.62-4.19,28.53-8.69-10.39-23.25-2-48.67,2.48-71.92C922.75,747.73,928.33,743.39,926.77,737.65Z"/><path class="cls-2" d="M892.67,732.08h-8.06a94.46,94.46,0,0,0-30.38,84.32c1.86.16.93-2.79,3.1-1.86,1.08,1.24.46,3.26.62,5-4.5,3.88,1.39,8.07,3.1,11.79,4.49,2.16,10.69,3.71,15.5,1.23L871,818.89C867.4,786.17,875,756,892.67,732.08Z"/><path class="cls-2" d="M858,743.24c-10.23-15.19-21.7,5.27-27.28,12.4-8.22,19.84-19.07,38.6-21.7,60.77,1.55,10.54-1.25,25.26,11.16,29.14,11.47-2.32,18.6-12.4,25.42-20.46C835.78,796.1,846.32,768,858,743.24Z"/><path class="cls-8" d="M1086.75,859.8c-1.7-33.48,6-73.93.62-109.75-36.43,1.09-71.46,2.33-106,6.2l3.71,10.55c2.33,25.11,3.88,58.44-18,76.26-5.89,2.64-11.62,10.7-18.6,5-11.63,3.25-19.85-6.67-26.05-14.89a58.8,58.8,0,0,1-21.7,14.27c-7.59,2.17-14.1-3.1-19.22-7.44-5.89,1.86-10.54,7-18,4.95-5.9.62-10.7-5.26-13-9.29C842.6,844,835,859,820.13,858c-6-2.79-12.72-6.05-16.13-11.16-7.9-14.57-6.35-37.52-1.24-52.09l-1.86-1.24c-67.58.31-129.43,3.41-194.7,9.3l-8.68,21.08,9.3-3.72c2.17,1.09,4.65,2.48,3.72,5.59L585.74,879l-2.49,12.41c10.7,12.7,11,32.55,6.83,48.36l16.12-1.25c6-12.39,2.64-28.83-4.34-39.68-.15-1.08.93-1.39,1.86-1.24v-1.86c3.41-7,13.64-4.8,20.46-4.33,7.29,5.73,15.19,12.7,18,22.94,4.34,7.9-4.34,22.78,7.43,26,58.14,6.21,118.44,11.17,176.1,20.47,90.69,16.43,181.68,33.79,264.15,68.82C1084.12,974.21,1085.05,913.75,1086.75,859.8Z"/><path class="cls-2" d="M647.75,769.28c-9.15,5.9-13.65,13.65-16.74,23.57,20.92-3.1,43.71-1.56,65.1-3.72V777.34C684.8,764.48,662.32,762.62,647.75,769.28Z"/><path class="cls-8" d="M461.73,872.21c1.7-17.83,10.69-34,16.12-49-1.4,4-4.35.15-6.83,1.23-6-5.42-1.08-14.1,0-20.46-75.33-9.61-153.31-1.55-229.42-9.3L93.4,795.94,68,794.7c2.47,46.66,5,93.47,7.43,140.14,47.44-5.58,92.24-4.65,140.14-5.58,81.23.93,161.68,5.58,242.44,5.58l2.48-11.17c6.36-13.95-.15-33.32,8.06-46.5C464.67,878.1,464.21,873.29,461.73,872.21Z"/><path class="cls-4" d="M666.06,595.77a34,34,0,0,1-4.27,3.05l-10,5.79L657,594.28c5.74-11.3,13.89-23.48,21.76-35.26,4.68-7,9.5-14.2,13.86-21.28a26.72,26.72,0,0,0-6.61,5.1,35.72,35.72,0,0,1-8,6.17l4.12,4.12-32.26,47.48v4.86c1.06.07,1.27,0,1.64-.36l5.64,3.54c-3.12,9.92-9,18.09-14.61,26s-11.28,15.81-14.34,25.46l.12.36a9.93,9.93,0,0,1,.43,1.47,4.88,4.88,0,0,0,1.77.37l4.74-9.7c10.16-20.76,22.78-41.8,33.37-58.77A28.93,28.93,0,0,0,666.06,595.77Z"/><path class="cls-4" d="M698.36,501.08c-3.19,3.07-6.48,6.25-8.58,10.19l-.2.32c-2.54,3.72-5.16,7.44-7.7,11-8.17,11.57-15.9,22.53-21.86,34.5.2.9.3,1.79.4,2.6a9.46,9.46,0,0,0,.61,3c.29-.14.52-.54,1-1.42.94-1.63,2.48-4.31,6.05-5.26a23.77,23.77,0,0,0,4.41-3.59c.67-.64,1.39-1.32,2.18-2-.44.14-.9.28-1.37.4l-9.74,2.51,6.16-8c5.28-6.83,10-14.26,14.59-21.45,6.28-9.85,12.77-20,20.76-28.79l14-21.05-1,.21c-.67.15-1.28.27-1.77.34l-6.54.86,3-5.86c.32-.62.64-1.23,1-1.84a126.46,126.46,0,0,0-12.95,17.05,8,8,0,0,1,3.2-1.5l5.36-1.07-1.35,5.3C706.64,493.11,702.43,497.16,698.36,501.08Z"/><path class="cls-4" d="M1126,427.31c-2.46-2-6.17-5.06-4.9-10.8l.22-1,.76-.73a10.55,10.55,0,0,1,6.94-2.9c-3.63-3.35-8.26-5.71-13.08-8.16-2-1-4-2-5.92-3.13a32.37,32.37,0,0,0-7.36-1c-6.09-.39-13.66-.88-16.72-8.27l-.6-1.43.68-1.39a19,19,0,0,1,7.32-7.47,109.21,109.21,0,0,0-13.3,1.22,117.28,117.28,0,0,1-13.83,1.28l-1.45,0-7.8-7.81,2.44-2.43c1.54-1.54,2.94-3.18,4.3-4.75a62.37,62.37,0,0,1,5.4-5.79h-.63c-15,0-29,4.31-41.58,8.21l-2,.61-3.91-3.94.24-1.7c.76-5.31,5.62-8.84,9.52-11.44a9.26,9.26,0,0,1,1.46-2.91c-39.79.36-70.51,26.19-97.82,49.14q-3.72,3.14-7.38,6.18l-.69.57-.88.17a11.42,11.42,0,0,0-3,1.45c-2.77,1.66-7.42,4.43-12.27.24l-1.43-1.23.27-1.86a13.53,13.53,0,0,1,1.63-4.8c-6,1.46-14.14,3.36-19.13-4.68l-.68-1.1.21-1.28a17.62,17.62,0,0,1,5.08-9.32l-1.67.45c-6.41,1.76-13.68,3.75-19.81-2.39L873,381.47l.9-2.13c2-4.75,5.49-8,9-10.69-7.16.43-15.54.18-22.89-2l-.46-.17c-4.11-1.9-6.1-5.8-4.95-9.69l.28-1,.76-.65c4.15-3.64,8.46-5.83,12.63-8l.33-.16c-7,.36-14.55.33-19.9-4.78l-1.78-1.7,1-2.23c2.25-4.87,7.38-7.79,13.06-10-7.11-.3-13.89-1.22-18-5.4l-1.44-1.47.62-2c1.27-4.08,5.22-7.15,9.93-9.66L829.37,311l-6.87-6-.24-1.12c-1.71-8.1,2-12.21,6.64-14.75l-2.33.14-.5-.12a31,31,0,0,0-5.54-.48c-5.56-.18-14.87-.48-15.7-10l-.09-1.08.54-.94c3.25-5.63,8.15-8.91,12.89-12.09,1.31-.87,2.6-1.74,3.83-2.63-2.9.16-5.84.53-8.72.9C804.8,263.89,796,265,788.11,261l-2-1,.12-2.24c.48-9,7.69-14.08,14-18.59l.89-.63a153.88,153.88,0,0,0-17.63,5.18c-4.75,1.6-9.67,3.26-14.72,4.54l-.42.11H768a23.39,23.39,0,0,0-2.62.2c-3.67.4-9.79,1.07-12.4-6.21l-.68-1.91,1.33-1.52c2.29-2.62,4.4-4.93,6.45-7.16,1.52-1.66,3-3.28,4.48-4.94C742,232,723.74,238.57,707.64,247.26c-5.09,3-12.66,4.54-17.29-.73l-.34-.39-.22-.47a7.59,7.59,0,0,1-.41-5.46,346.1,346.1,0,0,0-40.68,26.5c-39.56,39.74-68.47,84.48-91.58,125.71l2-2,4.25-4.15.77-.76,5.14-.84a5.45,5.45,0,0,1,4.4,1.57c1.85,1.87,1.88,4.58,1.74,6.46l-.09,1.22-.84.89c-16.74,17.73-30.13,40.9-41.95,61.84l5.18-3.75a5.87,5.87,0,0,1,4.74-1.21c2.77.56,4.21,3,5.16,4.65l1.29,2.2-1.67,2c-9.88,10.71-15.82,23.74-22.11,37.53-.35.78-.71,1.56-1.07,2.35a10,10,0,0,1,8.56.59l2.65,1.35-.95,2.82c-3,9-7.21,17.76-11.27,26.24-1.78,3.71-3.51,7.34-5.13,10.93a14.87,14.87,0,0,1,8.59-3.26l.59,0,.57.17c3.61,1,5.54,4.47,4.94,8.76l-.12.81-.47.68c-9.74,13.93-17.64,30.43-23.55,49.18l8.1-8.66a10.14,10.14,0,0,1,7.8-3.91,6.12,6.12,0,0,1,5.36,3.14l1,1.72-1,1.7c-12.77,21.69-22.33,45.79-30.26,68.09a180.63,180.63,0,0,1,15.56-11l2.2-1.44,1.77.88c3.31,1.65,3.21,4.92,3.16,6.31,0,.17,0,.33,0,.5v1l-.56.86A253.4,253.4,0,0,0,499,701.67c3.3-3.38,7.43-6.78,13.39-7l1.65-.05,1.08,1.25c.13.16.29.31.45.47,1,1,3.27,3.25,2,6.67l-.25.69-.51.52c-10.19,10.54-15.94,26-21.5,40.91-.22.6-.44,1.2-.67,1.8a42.6,42.6,0,0,1,9.52-3.79l2.38-.62,1.36,2c.05.06.34.31.53.47,1.07.9,3.89,3.31,2.25,7.14l-.16.37-.24.32c-7.41,10-13.35,22.17-18,36.88l1.09-.17c.32,0,.67-.13,1-.21,2.14-.5,6.61-1.53,9.17,2.33l.23.35.14.38c2,5.42-1.42,8.29-3.25,9.84a5.92,5.92,0,0,0-1.72,1.85L486.64,840c3.37-1.18,8.24-2.69,12.46.56l.46.36.31.48c3.22,4.92-.07,8.17-1.47,9.55a6,6,0,0,0-1.22,1.45c-1.13,4.12,3.77,10.09,13.13,16,18.39,11.57,42.13,16.56,45.46,14l.48-1.51,1.66-.55a29.26,29.26,0,0,1,14.9-1.06l.83-6.63,19.17-37.28a13.09,13.09,0,0,1-8.9-1.5l-1.4-.83-.25-1.6c-2-12.82,3.92-24.16,9.68-35.13,2-3.82,3.93-7.49,5.51-11.17a10.21,10.21,0,0,1-4.57-3.85,11.35,11.35,0,0,1-1.27-8.82l.08-.36.16-.34q3-6.47,6-12.94c5.63-12.13,11.42-24.61,17.77-36.84-.73-.3-1.37-.64-1.88-.91a8.55,8.55,0,0,0-1.95-.86l-3.87-.58,1.06-3.77a3.86,3.86,0,0,0-.22-.81,8,8,0,0,1-.45-4.55l.09-.44,20.73-40.91a14.43,14.43,0,0,1-5.61-2.11l-2.22-1.35.66-2.4a4.72,4.72,0,0,0-.16-.5,7.47,7.47,0,0,1-.53-3.38l0-.33.09-.33c3.34-11,9.53-19.67,15.52-28.05,4.34-6.09,8.5-11.92,11.45-18.39a6,6,0,0,0-1.33,0L643,613V598.5l19.77-29.11a9.22,9.22,0,0,1-3.89.08l-.87-.15-.69-.54c-3-2.42-3.45-5.78-3.74-8.24a12.69,12.69,0,0,0-.47-2.63l-.47-1.35.62-1.29c6.28-12.92,14.78-25,23-36.61,2.49-3.53,5.06-7.18,7.54-10.8,2.61-4.82,6.42-8.5,9.79-11.74l1.62-1.57c-2-1-3-3.12-3.61-4.74l-.56-1.44.7-1.37c5.92-11.56,13.66-20.2,21.85-29.35,9.63-10.76,19.58-21.88,27-38.69l.67-1.51,1.59-.42c.34-.09.72-.23,1.13-.37,2.24-.79,8.19-2.89,10.93,2.83l.78,1.64-.91,1.57c-5,8.57-11.09,16.09-17,23.36-5.4,6.6-10.94,13.38-15.59,21a6.12,6.12,0,0,1,3.09,1.27,5.82,5.82,0,0,1,2.1,4.76v1.05l-17,25.47c-7.67,8.36-13.76,17.92-20.2,28l-3.72,5.8a21.21,21.21,0,0,1,8.06-3.54,4.67,4.67,0,0,1,3.52.17,5.32,5.32,0,0,1,2.63,3.47.64.64,0,0,0,0,.07l1.55,1.56-1.37,2.3c-5,8.45-10.79,17.07-16.36,25.4-5.39,8.06-10.58,15.82-15.08,23.32a11.34,11.34,0,0,1,6.93.94l3.65,1.61-2.12,3.37c-9.53,15.13-21.3,34.32-31.48,53.81a19.34,19.34,0,0,1,8.39-1.41l1.61.14.92,1.32c3.5,5,0,8.72-1.82,10.72a17.75,17.75,0,0,0-1.33,1.54c2,2.07,4.07,4.22,6,6.32,11.25,12,21.88,23.35,38.83,22.73l1.49,0,1.06,1.06c5.57,5.55,19,7.38,27,8.47a41.14,41.14,0,0,1,7.09,1.29l80.3-5.27q3.38-6.84,6.8-13.86c21.48-43.9,45.82-93.66,77.55-131.12l.33-.39.43-.28c.38-.24.88-.63,1.41-1,2.29-1.76,5.13-4,8.38-3.14a6.12,6.12,0,0,1,4.13,3.76l.09.23c1.89,5.18-1.88,7.9-3.68,9.21-.34.24-.81.58-1.08.82l.29,1.32-1.05,1.29c-30.28,37.26-51.68,82.75-70.28,124.48l5.77-4.4a8.48,8.48,0,0,1,7.19-.5,7.87,7.87,0,0,1,4.61,5l.33,1-.34,1.05c-2,6.19-5.18,11.19-8.42,15.92,2.64-.81,5.79-.77,9.65.95l1.77.8.24,1.93c.73,5.94-1.91,10.81-4.5,14.63l10.67,5.33c.5-.37,1-.77,1.54-1.18,6.34-4.87,15.93-12.25,27-6.54l.29.15.26.2c3.45,2.7,4.36,1.87,7.75-1.23,3.13-2.86,7.42-6.78,14.49-5,7.91,1.76,13.69,6.82,17.6,11.7l8-8c6.87-5.36,15.48-4,23.07-2.84,2.53.39,4.92.77,7.12.88l.91.05.77.49c6.15,3.93,9.15,9.89,12.05,15.65.26.53.53,1.06.8,1.59a21.8,21.8,0,0,1,3.48-3.9l.67-.59.87-.19c1.73-.38,2.56-.9,2.76-1.26.49-.87-.49-3.69-1.2-5.74-1.25-3.59-2.88-8.3-1.24-12.7l-7.59-8.68-.22-.65c-.18-.55-1.83-1.6-2.81-2.23-1.81-1.16-3.87-2.48-5.09-4.58-1.1-1.88-1.84-5,.83-9.16l1-1.59H983l.45.13a57.13,57.13,0,0,0,7,1.23l1.89.27-8.54-8.86L982,666.49l.24-.87c.9-3.3,2.43-5.38,4.66-6.34a8.2,8.2,0,0,1,6.53.3,68.5,68.5,0,0,1-8.79-24.16l-.2-1.32.74-1.11c9.63-14.39,20.74-27.09,31.48-39.38,15.07-17.23,29.3-33.52,39.62-53.9l.18-.34.25-.3a27.21,27.21,0,0,0,3.37-6.47c2.19-5.22,4.91-11.71,12.18-13.29l1.94-.43,1.34,1.47c5.87,6.45,3.23,13.8,1,19.74a138.81,138.81,0,0,0,10.75-15.35c2.94-6.14,6.07-11.4,9.1-16.49,3.94-6.61,7.66-12.86,10.8-20.67l.21-.52.36-.42a2.18,2.18,0,0,0,.06-.66,4.48,4.48,0,0,1,1.34-3.57,4.07,4.07,0,0,1,3.21-1l2.85.29.24,2.85c1,11.52-2.81,25-6.13,37q-.75,2.65-1.44,5.21c6.64-11.28,8.53-29.69,10.24-46.41,1-9.44,1.88-18.35,3.55-26l.41-1.87,1.8-.64a8.26,8.26,0,0,1,6.77.27c0-.33,0-.67.07-1,.57-7.91,1.06-14.74-2.48-21.6A11.87,11.87,0,0,0,1126,427.31Z"/><path class="cls-4" d="M746.3,423.16l-.45,1,.68-1-.22.07Z"/><path class="cls-1" d="M1134.26,426a16.29,16.29,0,0,0-3.85-4c-1.72-1.41-2.43-2.11-2.6-2.87,1.11-.5,2.52-.42,4.49-.27a17.75,17.75,0,0,0,4.6-.06l4.79-.87-2.42-4.23c-4.74-8.26-12.58-12.26-20.16-16.12-2-1-4-2.05-5.93-3.14l-.55-.25a35,35,0,0,0-9.49-1.48c-5.26-.34-8.33-.77-10-2.65,2.32-2.86,7.32-5.57,13.62-7.28l10.71-2.92L1107,376.18c-9.32-3.25-18.75-2-27.87-.79-4,.54-7.81,1-11.57,1.18l-.93-.93c.8-.88,1.55-1.76,2.29-2.62,3.81-4.44,6.82-7.94,12.43-9.49l-.38-6.72c-18-2.84-35,1.21-49.32,5.48,1.2-.94,2.52-1.82,3.67-2.58l2.15-1.4-.1-2c.15-1,3.17-3.38,4.31-4.26l1.25-1,6.66-5.42-8.57-.68c-46.66-3.7-80.89,25.06-111.08,50.44-2.26,1.9-4.5,3.79-6.73,5.64a18.83,18.83,0,0,0-4.32,2.09c-.82.49-1.44.83-1.93,1.07a25.81,25.81,0,0,1,2.25-2.81c.68-.78,1.4-1.6,2.12-2.53l3.89-5-6.36-.49c-3.23-.25-6.52.55-9.69,1.33-5.91,1.44-8.89,1.86-11-.48,1.28-3.61,5.18-6.56,8.66-9.18l2.15-1.65,5.83-4.62-7.29-1.46c-5.3-1.06-10.39.33-14.89,1.56-5,1.37-8.36,2.16-11.12.83,2-2.92,4.87-5.1,7.93-7.39a41.08,41.08,0,0,0,7-6.16l5.9-7.12-9.12,1.52c-12,2-23.26,1.82-31-.45a2.68,2.68,0,0,1-.93-.74,57.28,57.28,0,0,1,10.06-6A57.36,57.36,0,0,0,883,346.1l6-5.08-7.78-1a63,63,0,0,0-11.16,0c-5.34.31-10.45.6-14.16-1.1,3.29-3,9.71-5,15.06-6.71a67.12,67.12,0,0,0,8.43-3l8.36-4-8.93-2.44c-3.53-1-8.06-1.07-12.86-1.18-5.75-.14-12.12-.29-15.92-2,3.06-3.17,10.38-6.05,15.53-8.08,2.65-1,5.15-2,7-3L870.86,302l-39.05,2-3-2.62c-.61-4.68,2.12-6.1,9.28-8.59,4-1.38,8.09-2.82,11.06-5.78l6.44-6.44-28.46,1.77a40.17,40.17,0,0,0-6.38-.54c-6.25-.21-8.28-.73-8.87-2.71,2.47-3.68,6.2-6.17,10.12-8.8s8.14-5.44,11.34-9.69l4.17-5.52h-9.26c-5.35-.41-10.68.26-15.84.91-6.83.87-13.32,1.69-18.89-.19,1.35-4.37,5.76-7.5,10.75-11,3.68-2.61,7.49-5.32,10.38-8.83l4.8-5.85-7.57.22c-11.13.32-21,3.65-30.56,6.87-4.5,1.52-9.15,3.09-13.82,4.29-1,0-2,.13-2.92.24-2.37.26-3.5.28-4.16-.12,1.63-1.82,3.18-3.52,4.7-5.17,3.82-4.17,7.42-8.1,11.16-13l5.6-7.3-9,1.83c-27.78,5.63-49.56,13-68.54,23.29l-.11.05c-2.12,1.24-6.07,2.76-8.23,1.13,0-.75.83-1.72,3.07-3.77s5.13-4.7,4.75-8.38l-.51-4.9-4.42,2.16a338.52,338.52,0,0,0-54.51,33.83l-.37.32C595.88,310,563.4,365.34,538,413.16l5.74,3.75c6.13-7.79,13-14.47,20.25-21.55q1.72-1.67,3.49-3.41l.39-.06c-17.39,19-31,43.22-43.12,64.66-2,3.56-4,7.06-5.93,10.46l5,4.5,13.44-9.72c-7.8,10.26-13.14,22-18.34,33.41-2.6,5.68-5.28,11.57-8.23,17.19l-5.84,11.14,10.71-6.61a26.6,26.6,0,0,0,5.56-5.23c2.36-2.68,3.92-4.22,5.32-4.8-2.73,7.27-6.19,14.51-9.56,21.54C512,538.57,507,549.05,504.2,559.61l-2.68,10.14,8.17-6.57c3.06-2.46,5.14-5.64,7.16-8.71,3-4.66,5.21-7.69,9-8.39a1.36,1.36,0,0,1,0,.21C513.62,564,504.25,585.63,498,610.5l5.86,3.19,15.3-16.35c-13.32,24.62-22.93,51.37-31,74.89l5.86,3.38a87.05,87.05,0,0,1,18.11-15.68,254,254,0,0,0-24,51.4L486,717.7l6.4-2c4-1.26,6.93-4.36,9.73-7.36,2.37-2.55,4.51-4.84,7.1-6-9.55,11.29-15.06,26.08-20.39,40.41-1.61,4.32-3.27,8.79-5,13l5.7,3.66a35.23,35.23,0,0,1,13.88-8.82c-9.45,13.36-16.53,30-21.6,50.92L479.55,811l7.77-6c3.68-2.83,6.19-4.88,8.76-9,.42-.1,1-.23,1.48-.29a6.88,6.88,0,0,1-1.31,1.25,11.5,11.5,0,0,0-3.75,4.77l-22,63.87,8.64-6c3.15-2.18,4.57-5.32,5.81-8.08a16.85,16.85,0,0,1,2.74-4.75l.84-.3c2.4-.84,4.21-1.39,5.52-1.05l-.46.46a10.58,10.58,0,0,0-2.93,4.22l0,.12c-1.42,4.83-.29,12.56,13.13,21.89,8,5.55,19.34,10.88,30.36,14.26,5.89,1.8,12.5,3.34,17.88,3.34,4.19,0,7.63-.93,9.41-3.41a22.31,22.31,0,0,1,13.28.39l4,1.33,1.68-13.48L605.85,825l-7.38,1.86-2.26.59c-3.19.88-5.47,1.44-7.37,1-.85-9.87,4-19.18,9.2-29A120.37,120.37,0,0,0,605.66,783l2.26-6.59-7.46,2.49a3.51,3.51,0,0,1-1.78-1.35,4.56,4.56,0,0,1-.42-3.25q3-6.3,5.87-12.6c6.44-13.89,13.1-28.24,20.53-42l-5.53-4-.2.18a9.46,9.46,0,0,1-1.94-.87c-.39-.21-.81-.42-1.24-.63a13.26,13.26,0,0,0-.44-1.53c-.08-.24-.17-.49-.21-.67l27.36-54L634,661.47c-.45.18-.86.33-1.25.45l7.51-4.91c2.12-1.38,6.4-4.18,10.4-5.25l-.21.22c-1.44,1.55-3.41,3.67-3.72,6.76l-.16,1.65,1.18,1.15c2.49,2.43,4.89,5,7.43,7.7,11,11.71,23.38,24.93,42.62,24.93h0c7.53,6.37,21.35,8.25,29.78,9.4,2,.28,4.53.62,5.45.87l.73.61,86.56-5.67.88-1.78q3.81-7.73,7.69-15.68c20.92-42.75,44.58-91.11,74.94-127.69a5.67,5.67,0,0,0-.52,2c-33.43,41.51-56,92.43-75.9,137.39l5.25,4.13,15.87-12.21a1.5,1.5,0,0,1,1.12,0l.05,0c-2,5.45-5.15,9.95-8.44,14.7A82.34,82.34,0,0,0,833,714.13l-3.65,8.38,8.27-3.88a26,26,0,0,0,7.3-5.73c3.26-3.29,5.13-5,8.31-4.24-.32,3.63-2.62,6.85-4.85,10L845.31,723l21.54,10.77,1.68-1.17c1.1-.77,2.23-1.64,3.43-2.56,7.21-5.54,12.84-9.23,19.41-6,7.89,6,13,1.31,16.37-1.78,3-2.74,4.85-4.25,8.18-3.39l.12,0c7.56,1.66,12.79,7.53,15.85,12.17l2.32,3.52,13.37-13.37c4.51-3.38,10.88-2.39,17.62-1.34,2.26.35,4.6.71,6.85.89,4.1,2.93,6.34,7.37,8.91,12.47a81.45,81.45,0,0,0,4.22,7.7l3.89,6.08,2.28-6.84a16.12,16.12,0,0,1,4-6.64c3.09-.84,5.17-2.28,6.34-4.38,2-3.58.63-7.54-.7-11.37-1.42-4.1-2.25-6.93-.81-8.93l1.59-2.22-10.1-11.55c-1.1-2.4-3.34-3.83-5.33-5.1a10.8,10.8,0,0,1-2.86-2.24l0-.07c1.9.4,3.89.68,6,1,4.45.61,9.05,1.25,12.44,3.2l4.2-5.38L990,669.75l-.78-3.12a3.4,3.4,0,0,1,.52-1c.77,0,2.76,1.07,4,1.71,2.76,1.46,5.89,3.12,9.21,2.6l5.78-.92-3.6-4.61c-4.94-6.31-11.17-16.34-13.36-28.7,9.21-13.57,19.86-25.75,30.18-37.55,14.61-16.71,29.71-34,40.41-55a33.31,33.31,0,0,0,4.17-7.9c1.72-4.09,3.07-7,5.26-8.38,1.23,2.84.12,6.22-1.64,11-1.6,4.31-3.41,9.2-2.27,14.09l1.41,6,4.38-4.38a128.26,128.26,0,0,0,19.72-25.44l.17-.31c2.84-5.94,5.92-11.1,8.89-16.1,1.44-2.42,2.91-4.88,4.34-7.43-1.13,5.17-2.59,10.38-4,15.32a169.24,169.24,0,0,0-4.32,17.75l-1.14,7.18,6.28-3.67c16.32-9.52,19.06-36.29,21.47-59.91.84-8.15,1.63-15.91,2.9-22.6a10.45,10.45,0,0,1,2,2.25c.4.54.82,1.1,1.27,1.63l5.94,6.84.11-9.06c0-2.91.24-5.74.44-8.48.61-8.62,1.19-16.76-3.31-25.4Zm-499,226.61-4.74,9.7a4.88,4.88,0,0,1-1.77-.37,9.93,9.93,0,0,0-.43-1.47l-.12-.36c3.06-9.65,8.79-17.69,14.34-25.46s11.49-16.08,14.61-26l-5.64-3.54c-.37.34-.58.43-1.64.36v-4.86l32.26-47.48L678,549a35.72,35.72,0,0,0,8-6.17,26.72,26.72,0,0,1,6.61-5.1c-4.36,7.08-9.18,14.28-13.86,21.28-7.87,11.78-16,24-21.76,35.26l-5.25,10.33,10-5.79a34,34,0,0,0,4.27-3.05,28.93,28.93,0,0,1,2.58-1.93C658.05,610.81,645.43,631.85,635.27,652.61ZM704,483.33a8,8,0,0,0-3.2,1.5,126.46,126.46,0,0,1,12.95-17.05c-.33.61-.65,1.22-1,1.84l-3,5.86,6.54-.86c.49-.07,1.1-.19,1.77-.34l1-.21-14,21.05c-8,8.76-14.48,18.94-20.76,28.79-4.57,7.19-9.31,14.62-14.59,21.45l-6.16,8,9.74-2.51c.47-.12.93-.26,1.37-.4-.79.69-1.51,1.37-2.18,2a23.77,23.77,0,0,1-4.41,3.59c-3.57,1-5.11,3.63-6.05,5.26-.51.88-.74,1.28-1,1.42a9.46,9.46,0,0,1-.61-3c-.1-.81-.2-1.7-.4-2.6,6-12,13.69-22.93,21.86-34.5,2.54-3.6,5.16-7.32,7.7-11l.2-.32c2.1-3.94,5.39-7.12,8.58-10.19,4.07-3.92,8.28-8,9.69-13.52l1.35-5.3Zm426.77-32.22c0,.32,0,.66-.07,1a8.26,8.26,0,0,0-6.77-.27l-1.8.64-.41,1.87c-1.67,7.63-2.58,16.54-3.55,26-1.71,16.72-3.6,35.13-10.24,46.41q.69-2.55,1.44-5.21c3.32-11.93,7.08-25.44,6.13-37l-.24-2.85-2.85-.29a4.07,4.07,0,0,0-3.21,1,4.48,4.48,0,0,0-1.34,3.57,2.18,2.18,0,0,1-.06.66l-.36.42-.21.52c-3.14,7.81-6.86,14.06-10.8,20.67-3,5.09-6.16,10.35-9.1,16.49a138.81,138.81,0,0,1-10.75,15.35c2.19-5.94,4.83-13.29-1-19.74l-1.34-1.47-1.94.43c-7.27,1.58-10,8.07-12.18,13.29a27.21,27.21,0,0,1-3.37,6.47l-.25.3-.18.34c-10.32,20.38-24.55,36.67-39.62,53.9-10.74,12.29-21.85,25-31.48,39.38l-.74,1.11.2,1.32a68.5,68.5,0,0,0,8.79,24.16,8.2,8.2,0,0,0-6.53-.3c-2.23,1-3.76,3-4.66,6.34l-.24.87,1.69,6.72,8.54,8.86-1.89-.27a57.13,57.13,0,0,1-7-1.23l-.45-.13h-3.58l-1,1.59c-2.67,4.17-1.93,7.28-.83,9.16,1.22,2.1,3.28,3.42,5.09,4.58,1,.63,2.63,1.68,2.81,2.23l.22.65,7.59,8.68c-1.64,4.4,0,9.11,1.24,12.7.71,2.05,1.69,4.87,1.2,5.74-.2.36-1,.88-2.76,1.26l-.87.19-.67.59a21.8,21.8,0,0,0-3.48,3.9c-.27-.53-.54-1.06-.8-1.59-2.9-5.76-5.9-11.72-12.05-15.65l-.77-.49-.91-.05c-2.2-.11-4.59-.49-7.12-.88-7.59-1.18-16.2-2.52-23.07,2.84l-8,8c-3.91-4.88-9.69-9.94-17.6-11.7-7.07-1.79-11.36,2.13-14.49,5-3.39,3.1-4.3,3.93-7.75,1.23l-.26-.2-.29-.15c-11.1-5.71-20.69,1.67-27,6.54-.53.41-1,.81-1.54,1.18l-10.67-5.33c2.59-3.82,5.23-8.69,4.5-14.63l-.24-1.93-1.77-.8c-3.86-1.72-7-1.76-9.65-.95,3.24-4.73,6.41-9.73,8.42-15.92l.34-1.05-.33-1a7.87,7.87,0,0,0-4.61-5,8.48,8.48,0,0,0-7.19.5l-5.77,4.4c18.6-41.73,40-87.22,70.28-124.48l1.05-1.29-.29-1.32c.27-.24.74-.58,1.08-.82,1.8-1.31,5.57-4,3.68-9.21l-.09-.23a6.12,6.12,0,0,0-4.13-3.76c-3.25-.82-6.09,1.38-8.38,3.14-.53.41-1,.8-1.41,1l-.43.28-.33.39C868.55,585.24,844.21,635,822.73,678.9q-3.42,7-6.8,13.86L735.63,698a41.14,41.14,0,0,0-7.09-1.29c-8-1.09-21.4-2.92-27-8.47l-1.06-1.06-1.49,0c-16.95.62-27.58-10.74-38.83-22.73-2-2.1-4-4.25-6-6.32a17.75,17.75,0,0,1,1.33-1.54c1.86-2,5.32-5.72,1.82-10.72l-.92-1.32-1.61-.14a19.34,19.34,0,0,0-8.39,1.41c10.18-19.49,22-38.68,31.48-53.81l2.12-3.37-3.65-1.61a11.34,11.34,0,0,0-6.93-.94c4.5-7.5,9.69-15.26,15.08-23.32,5.57-8.33,11.34-17,16.36-25.4l1.37-2.3-1.55-1.56a.64.64,0,0,1,0-.07,5.32,5.32,0,0,0-2.63-3.47,4.67,4.67,0,0,0-3.52-.17,21.21,21.21,0,0,0-8.06,3.54l3.72-5.8c6.44-10.12,12.53-19.68,20.2-28l17-25.47v-1.05a5.82,5.82,0,0,0-2.1-4.76,6.12,6.12,0,0,0-3.09-1.27c4.65-7.59,10.19-14.37,15.59-21,6-7.27,12.09-14.79,17-23.36l.91-1.57-.78-1.64c-2.74-5.72-8.69-3.62-10.93-2.83-.41.14-.79.28-1.13.37l-1.59.42-.67,1.51c-7.47,16.81-17.42,27.93-27,38.69-8.19,9.15-15.93,17.79-21.85,29.35l-.7,1.37.56,1.44c.62,1.62,1.65,3.74,3.61,4.74l-1.62,1.57c-3.37,3.24-7.18,6.92-9.79,11.74-2.48,3.62-5,7.27-7.54,10.8-8.22,11.64-16.72,23.69-23,36.61l-.62,1.29.47,1.35a12.69,12.69,0,0,1,.47,2.63c.29,2.46.69,5.82,3.74,8.24l.69.54.87.15a9.22,9.22,0,0,0,3.89-.08L643,598.5V613l4.08-.77a6,6,0,0,1,1.33,0c-2.95,6.47-7.11,12.3-11.45,18.39-6,8.38-12.18,17.05-15.52,28.05l-.09.33,0,.33a7.47,7.47,0,0,0,.53,3.38,4.72,4.72,0,0,1,.16.5l-.66,2.4,2.22,1.35a14.43,14.43,0,0,0,5.61,2.11L608.43,710l-.09.44a8,8,0,0,0,.45,4.55,3.86,3.86,0,0,1,.22.81L608,719.58l3.87.58a8.55,8.55,0,0,1,1.95.86c.51.27,1.15.61,1.88.91-6.35,12.23-12.14,24.71-17.77,36.84q-3,6.47-6,12.94l-.16.34-.08.36a11.35,11.35,0,0,0,1.27,8.82,10.21,10.21,0,0,0,4.57,3.85c-1.58,3.68-3.5,7.35-5.51,11.17-5.76,11-11.72,22.31-9.68,35.13l.25,1.6,1.4.83a13.09,13.09,0,0,0,8.9,1.5l-19.17,37.28-.83,6.63a29.26,29.26,0,0,0-14.9,1.06l-1.66.55-.48,1.51c-3.33,2.55-27.07-2.44-45.46-14-9.36-5.89-14.26-11.86-13.13-16a6,6,0,0,1,1.22-1.45c1.4-1.38,4.69-4.63,1.47-9.55l-.31-.48-.46-.36c-4.22-3.25-9.09-1.74-12.46-.56L499,804.15a5.92,5.92,0,0,1,1.72-1.85c1.83-1.55,5.22-4.42,3.25-9.84l-.14-.38-.23-.35c-2.56-3.86-7-2.83-9.17-2.33-.37.08-.72.17-1,.21l-1.09.17c4.67-14.71,10.61-26.86,18-36.88l.24-.32.16-.37c1.64-3.83-1.18-6.24-2.25-7.14-.19-.16-.48-.41-.53-.47l-1.36-2-2.38.62a42.6,42.6,0,0,0-9.52,3.79c.23-.6.45-1.2.67-1.8,5.56-14.93,11.31-30.37,21.5-40.91l.51-.52.25-.69c1.25-3.42-1-5.7-2-6.67-.16-.16-.32-.31-.45-.47L514,694.66l-1.65.05c-6,.18-10.09,3.58-13.39,7a253.4,253.4,0,0,1,22.58-43.8l.56-.86v-1c0-.17,0-.33,0-.5.05-1.39.15-4.66-3.16-6.31l-1.77-.88-2.2,1.44a180.63,180.63,0,0,0-15.56,11c7.93-22.3,17.49-46.4,30.26-68.09l1-1.7-1-1.72a6.12,6.12,0,0,0-5.36-3.14,10.14,10.14,0,0,0-7.8,3.91l-8.1,8.66c5.91-18.75,13.81-35.25,23.55-49.18l.47-.68.12-.81c.6-4.29-1.33-7.73-4.94-8.76l-.57-.17-.59,0a14.87,14.87,0,0,0-8.59,3.26c1.62-3.59,3.35-7.22,5.13-10.93,4.06-8.48,8.25-17.25,11.27-26.24l.95-2.82L532.66,501a10,10,0,0,0-8.56-.59c.36-.79.72-1.57,1.07-2.35,6.29-13.79,12.23-26.82,22.11-37.53l1.67-2-1.29-2.2c-.95-1.63-2.39-4.09-5.16-4.65a5.87,5.87,0,0,0-4.74,1.21l-5.18,3.75c11.82-20.94,25.21-44.11,41.95-61.84l.84-.89.09-1.22c.14-1.88.11-4.59-1.74-6.46a5.45,5.45,0,0,0-4.4-1.57l-5.14.84-.77.76-4.25,4.15-2,2c23.11-41.23,52-86,91.58-125.71a346.1,346.1,0,0,1,40.68-26.5,7.59,7.59,0,0,0,.41,5.46l.22.47.34.39c4.63,5.27,12.2,3.69,17.29.73,16.1-8.69,34.36-15.28,56.88-20.47-1.47,1.66-3,3.28-4.48,4.94-2,2.23-4.16,4.54-6.45,7.16l-1.33,1.52.68,1.91c2.61,7.28,8.73,6.61,12.4,6.21a23.39,23.39,0,0,1,2.62-.2h.43l.42-.11c5.05-1.28,10-2.94,14.72-4.54a153.88,153.88,0,0,1,17.63-5.18l-.89.63c-6.35,4.51-13.56,9.63-14,18.59l-.12,2.24,2,1c7.93,4,16.69,2.91,25.17,1.84,2.88-.37,5.82-.74,8.72-.9-1.23.89-2.52,1.76-3.83,2.63-4.74,3.18-9.64,6.46-12.89,12.09l-.54.94.09,1.08c.83,9.53,10.14,9.83,15.7,10a31,31,0,0,1,5.54.48l.5.12,2.33-.14c-4.67,2.54-8.35,6.65-6.64,14.75l.24,1.12,6.87,6,22.75-1.18c-4.71,2.51-8.66,5.58-9.93,9.66l-.62,2,1.44,1.47c4.08,4.18,10.86,5.1,18,5.4-5.68,2.19-10.81,5.11-13.06,10l-1,2.23,1.78,1.7c5.35,5.11,12.91,5.14,19.9,4.78l-.33.16c-4.17,2.13-8.48,4.32-12.63,8l-.76.65-.28,1c-1.15,3.89.84,7.79,4.95,9.69l.46.17c7.35,2.22,15.73,2.47,22.89,2-3.46,2.71-6.94,5.94-9,10.69l-.9,2.13,1.64,1.64c6.13,6.14,13.4,4.15,19.81,2.39l1.67-.45a17.62,17.62,0,0,0-5.08,9.32l-.21,1.28.68,1.1c5,8,13.12,6.14,19.13,4.68a13.53,13.53,0,0,0-1.63,4.8l-.27,1.86,1.43,1.23c4.85,4.19,9.5,1.42,12.27-.24a11.42,11.42,0,0,1,3-1.45l.88-.17.69-.57q3.66-3,7.38-6.18c27.31-22.95,58-48.78,97.82-49.14a9.26,9.26,0,0,0-1.46,2.91c-3.9,2.6-8.76,6.13-9.52,11.44l-.24,1.7,3.91,3.94,2-.61c12.6-3.9,26.55-8.21,41.58-8.21h.63a62.37,62.37,0,0,0-5.4,5.79c-1.36,1.57-2.76,3.21-4.3,4.75l-2.44,2.43,7.8,7.81,1.45,0a117.28,117.28,0,0,0,13.83-1.28,109.21,109.21,0,0,1,13.3-1.22,19,19,0,0,0-7.32,7.47l-.68,1.39.6,1.43c3.06,7.39,10.63,7.88,16.72,8.27a32.37,32.37,0,0,1,7.36,1c2,1.11,4,2.13,5.92,3.13,4.82,2.45,9.45,4.81,13.08,8.16a10.55,10.55,0,0,0-6.94,2.9l-.76.73-.22,1c-1.27,5.74,2.44,8.79,4.9,10.8a11.87,11.87,0,0,1,2.29,2.2C1131.87,436.37,1131.38,443.2,1130.81,451.11Zm-385-27,.45-1h0l.22-.07Z"/><path class="cls-2" d="M279.78,664.06a15.56,15.56,0,0,1-16.38-3.13c-4.19,7.29-11.78,17.06-20.46,18.61-1.86-.15-2-2.17-1.86-3.72,8.06-7.44,15.5-15.35,16.74-25.43-10.69-20.61-16.58-43.55-23.56-65.1-18.29,4.81-35.19,18.45-42.78,36a52.48,52.48,0,0,0-1.25,14.26,9,9,0,0,0,9.93,6.82c12.86-3.71,21.55-15.19,29.14-26.65h1.86c5.73,16.89-20,22.47-16.12,40.3,2.94,6.51,11.16,2.79,16.12,5.58,1.24,2.32.62,5.89-2.48,6.2-5.43.78-12.25,1.71-16.12-3.1-5.43-3.1-4.66-10.54-5.59-15.5-5.73,3.41-15.19,1.7-19.22-1.24,5.89,11.78.62,25.57-7.44,34.1l8.68,7.44c1.86,5,4.35,10.38,2.49,16.12,6.5.16,10.22,6.82,13.63,10.54,4,9.46.47,21.24-1.23,29.77a15.79,15.79,0,0,0,10.54,3.1c15-4.65,27.28-13.8,37.2-25.43,9.46-8.68,4.19-23.4,11.78-32.86a6.21,6.21,0,0,1,9.3,0C281.23,702.17,285.21,660.34,279.78,664.06Z"/><path class="cls-4" d="M264.09,664.78c-3.84,6-11.3,15.63-20.7,17.3l-.33.07-.34,0a4.36,4.36,0,0,1-3.06-1.56,6.52,6.52,0,0,1-1.15-5l.09-1,.73-.67c6.9-6.37,14.34-13.91,15.82-23.07-8.28-16.18-13.7-33.72-18.94-50.7-1.19-3.85-2.41-7.81-3.65-11.69-16.87,5.21-31.85,18.17-38.62,33.62a50.28,50.28,0,0,0-1.14,13.06,6.44,6.44,0,0,0,6.89,4.64c12.13-3.63,20.53-15.07,27.46-25.53l.76-1.16H233l.6,1.75c3.39,10-2.71,16.69-8.1,22.59-4.86,5.33-9.46,10.37-8,17.72,1.05,2.08,2.9,2.37,7,2.54,2.55.11,5.45.23,7.91,1.61l.66.38.36.66a7.58,7.58,0,0,1,.11,6.95,5.7,5.7,0,0,1-4.62,3c-5.21.75-13.2,1.9-18.07-3.68-5-3.13-5.54-8.9-6-13.56a1.79,1.79,0,0,0,0-.23,24,24,0,0,1-12.66-.18c2.37,10.44-1.85,21.37-8.2,29.08l7.2,6.17.75,2c1.56,4.08,3.3,8.61,2.66,13.55,4.64,1.32,7.78,5.23,10.39,8.47.72.9,1.4,1.75,2,2.44l.3.33.17.41c3.79,8.89,1.53,19.25-.29,27.57-.15.69-.3,1.37-.44,2a13.36,13.36,0,0,0,7.18,1.72c13.4-4.21,25.41-12.46,35.71-24.54l.22-.23c4.36-4,5.13-9.73,5.94-15.79.78-5.81,1.59-11.82,5.58-16.79l.19-.21a8.78,8.78,0,0,1,12.95,0l.24.29a4.27,4.27,0,0,0,.79.85c.43-.42,1.33-1.77,2.23-4.89,1.91-6.67,2.18-15,1.63-18.19A18.33,18.33,0,0,1,264.09,664.78Z"/><path class="cls-1" d="M283.32,662.82a3.44,3.44,0,0,0-4.69-1.08,13.06,13.06,0,0,1-13.4-2.63l-2.38-2.39-1.69,2.93c-2,3.45-8.84,14.39-17.16,17,7.42-7,15.07-15.24,16.38-25.92l.1-.79-.37-.72c-8.28-16-13.71-33.56-19-50.58-1.44-4.65-2.93-9.46-4.44-14.13l-.75-2.32-2.36.62c-19.67,5.17-36.72,19.52-44.49,37.43l-.14.4a54.8,54.8,0,0,0-1.32,15l.06.41a11.57,11.57,0,0,0,12.69,8.84l.47-.09c12.7-3.67,21.42-14.26,28.52-24.65.12,5.21-3.55,9.24-7.69,13.78-5.34,5.84-11.38,12.47-9.19,22.58l.18.51c2.45,5.43,7.74,5.65,11.6,5.81a18.13,18.13,0,0,1,4.83.61,2.19,2.19,0,0,1-.13,1.39c-.1.19-.22.3-.68.35-5.88.85-11,1.27-13.74-2.16l-.31-.38-.42-.24c-2.83-1.62-3.35-4.94-3.83-9.83-.14-1.37-.27-2.67-.5-3.91l-.68-3.63-3.18,1.89c-4.75,2.82-13.08,1.3-16.38-1.11l-3.83,3.24c5.37,10.74.35,23.39-7,31.17l-1.87,2L186.81,691l.29.77c1.64,4.26,3.33,8.68,1.92,13l-1.07,3.3,3.46.08c4,.1,6.81,3.61,9.54,7,.67.83,1.3,1.62,2,2.35,2.91,7.32.88,16.58-.75,24.06-.29,1.32-.57,2.59-.81,3.8L201,747l1.28,1a18.49,18.49,0,0,0,11,3.67c.43,0,.86,0,1.28-.05l.29,0,.28-.09c14.42-4.45,27.3-13.23,38.31-26.09,5.63-5.26,6.55-12.14,7.45-18.8.71-5.29,1.38-10.3,4.39-14.13a3.65,3.65,0,0,1,5.43,0c2.72,3.53,5.74,3.31,7.68,1.91C284.51,689.92,286.4,667.2,283.32,662.82Zm-5.53,22.3c-.9,3.12-1.8,4.47-2.23,4.89a4.27,4.27,0,0,1-.79-.85l-.24-.29a8.78,8.78,0,0,0-12.95,0l-.19.21c-4,5-4.8,11-5.58,16.79-.81,6.06-1.58,11.79-5.94,15.79l-.22.23c-10.3,12.08-22.31,20.33-35.71,24.54a13.36,13.36,0,0,1-7.18-1.72c.14-.66.29-1.34.44-2,1.82-8.32,4.08-18.68.29-27.57l-.17-.41-.3-.33c-.64-.69-1.32-1.54-2-2.44-2.61-3.24-5.75-7.15-10.39-8.47.64-4.94-1.1-9.47-2.66-13.55l-.75-2-7.2-6.17c6.35-7.71,10.57-18.64,8.2-29.08a24,24,0,0,0,12.66.18,1.79,1.79,0,0,1,0,.23c.46,4.66,1,10.43,6,13.56,4.87,5.58,12.86,4.43,18.07,3.68a5.7,5.7,0,0,0,4.62-3,7.58,7.58,0,0,0-.11-6.95l-.36-.66-.66-.38c-2.46-1.38-5.36-1.5-7.91-1.61-4.1-.17-5.95-.46-7-2.54-1.46-7.35,3.14-12.39,8-17.72,5.39-5.9,11.49-12.59,8.1-22.59l-.6-1.75h-5.1l-.76,1.16c-6.93,10.46-15.33,21.9-27.46,25.53a6.44,6.44,0,0,1-6.89-4.64,50.28,50.28,0,0,1,1.14-13.06c6.77-15.45,21.75-28.41,38.62-33.62,1.24,3.88,2.46,7.84,3.65,11.69,5.24,17,10.66,34.52,18.94,50.7-1.48,9.16-8.92,16.7-15.82,23.07l-.73.67-.09,1a6.52,6.52,0,0,0,1.15,5,4.36,4.36,0,0,0,3.06,1.56l.34,0,.33-.07c9.4-1.67,16.86-11.28,20.7-17.3a18.33,18.33,0,0,0,15.33,2.15C280,670.16,279.7,678.45,277.79,685.12Z"/><path class="cls-3" d="M1136.28,415.39c-5.42-9.45-15.81-12.86-24.8-18-7.44-2.64-18.91.77-22.32-7.45,2.47-5.11,9.92-8.68,16.74-10.54-12.86-4.49-26.51.47-39.69.62l-4.34-4.34c6.21-6.2,9.61-13,18.61-15.5-19.69-3.1-37.52,2.17-54.57,7.44l-1.24-1.24c.62-4.34,5.58-7.44,9.3-9.92-.15-3.1,4.34-6,6.82-8.06-49-3.88-83.86,29.14-115.95,55.81-4.19.77-7.9,6.35-12.4,2.47.62-4.34,3.57-6.5,6.2-9.92-8.06-.62-18.6,7.14-24.18-1.85,1.08-6.52,7.9-10.7,12.4-14.26-10.86-2.18-21.7,8.06-29.76,0,3.42-8.08,12.24-11.32,16.74-16.74-10.24,1.7-23.1,2.32-32.87-.63-2-.93-3.88-2.94-3.1-5.58,7.44-6.51,15.81-8.21,22.94-14.26-9.91-1.24-22.63,3.1-29.76-3.72,3.72-8.06,19.75-10.25,26.88-13.66-8.52-2.33-26.11.94-32.46-5.56,2.33-7.44,18.9-11.7,25.57-15.11l-40.45,2.09-5-4.34c-3-14,14.26-11.78,21.08-18.61l-19.84,1.24c-6.51-1.54-17.82,1.55-18.6-7.44,5.27-9.14,16.12-11.62,22.32-19.84h-2.48c-13.18-1.08-27.13,5.12-38.44-.62.62-11.47,15.18-15.5,22.31-24.18-16,.46-29.29,7.43-44,11.16-4.49,0-9.61,2.33-11.78-3.73,6.51-7.43,11.78-12.54,17.37-19.83-23.72,4.8-46.67,11.63-67.6,22.94-3.71,2.17-9.6,3.87-13,0-2.64-5.89,7.9-9.15,7.43-13.64a337.18,337.18,0,0,0-53.94,33.48C601.94,308.75,569.7,360.83,541,414.77c7.44-9.45,15.66-17,24.8-26l3.72-.63c2.48-.15,2.63,2.33,2.48,4.34-20.77,22-36.12,51.62-50.23,76.27l18-13c2.48-1.86,3.87.62,5,2.48-14.57,15.81-20.93,36.59-31,55.81,5.27-3.25,9.46-13.95,17.37-9.93-6.51,19.38-18.6,37.68-23.57,56.43,7.13-5.73,9-17.36,19.23-18,2.17.62,2.79,2.79,2.48,5-13.33,19.07-22.17,41.08-27.91,63.87l18-19.22c1.24-2,5.88-4,7.44-1.25-15.35,26-26.05,55.35-35.34,82.48,8.21-9.46,15.65-14.27,26-21.08,1.55.77,1.25,2.32,1.25,3.72a251.79,251.79,0,0,0-27.28,56.42c7.43-2.33,11.15-13.95,21.08-14.26.93,1.09,2.48,2,1.86,3.72-13.8,14.26-19.53,36.27-27.29,55.18a38.73,38.73,0,0,1,18-10.54c.93,1.4,3.41,2.17,2.48,4.35-11.47,15.5-18.13,34.26-22.32,51.46,4-3.1,6.21-5,8.69-9.3,2-.31,5.27-1.7,6.81.62,1.86,5.11-3.56,5.58-4.95,9.3l-18.61,53.95c4.5-3.11,4.5-9.31,8.68-13,3.41-1.08,7.75-3.25,11.16-.62,2.64,4-2,4.81-3.09,8.07-5.59,19.06,61.53,43.4,65.1,32.24a25.81,25.81,0,0,1,16.74,0l1.24-9.92,22.33-43.41c-5,1.24-9.46,3.1-13.65.62-2.79-17.51,11.16-32.71,16.74-49l-1.86.62c-4.34-.93-6.66-4.5-5.57-9.31,8.68-18.44,16.89-37,26.66-55.18-3.1,3.26-6.21-.78-9.3-1.24.61-2.17-1.09-3.41-.62-5.58l23.56-46.5c-3.88,1.54-6.36,1.54-9.93-.63.48-1.7-.77-2.78-.61-4.34,6.2-20.46,23.1-32.86,29.14-52.08-2.48,2.32-5,.78-7.44,1.24v-9.3l32.86-48.37c-3.87,2.64-5.89,5.89-9.92,8.06-5.42,1.09-3.56,7.91-9.92,6.82-2.94-2.32-2-6.2-3.1-9.29,8.06-16.59,19.69-31.48,30.39-47.13,5.11-9.61,15.81-14.42,18-22.94-3.88.77-7,9.45-9.92,1.86,12.7-24.81,35-36.74,49-68.21,2.33-.62,6.35-2.95,8.06.62-10.39,18-26,31-36,50.22,2.32-.3,8.06-2.48,8.06,1.86l-16.12,24.19c-13.65,14.88-22.64,33.79-35.35,50.22,10.23-2.64,12.56-12.25,22.94-14.26,2-.78,1.71,1.7,2.48,2.48-12.08,20.31-28.21,41.23-37.82,60.15,5.11-3,8.22-8.53,14.88-5.58-13.17,20.92-26.19,42.63-36.58,63.87,4-2.64,10.54-6.68,16.12-6.2,3.26,4.65-3.87,6.5-4.34,11.15,14,13.65,26.35,32.4,49,31.63,9.11,9.09,33.8,9.11,35.81,10.82l83.19-5.46C842,647.71,867.72,591.56,902.91,550c2.63-1.7,6.9-6.41,8.91-1.91,1.86,5.11-5.89,5.11-5,9.29-33,40.62-55.19,90.06-76.27,137.66l16.12-12.41a4.68,4.68,0,0,1,6.82,2.49c-3.87,11.93-12.55,19.38-17.36,30.38,7.29-3.41,10.08-14,20.46-9.3.78,6.36-3.25,11.31-6.2,15.5l16.13,8.06c6.66-4.65,15.81-14.26,26.65-8.68,10.7,8.37,12.1-8.52,23.57-5.58,7.75,1.7,13.79,7.28,18,13.64l10.53-10.54c7.75-6,18.91-1.7,27.9-1.24,7.75,5,9.93,14,14.88,21.7a19.44,19.44,0,0,1,5.59-8.68c13.33-2.94-2.17-15.34,3.72-23.56l-8.68-9.92c-1.56-4.65-12.4-5.27-7.44-13h1.24c6.2,1.7,14.88,1.39,21.08,5l-16.74-17.37-1.25-5c2.8-10.24,10.86.93,16.75,0-6.66-8.54-12.41-19.38-14.27-31.63,22.64-33.79,53.18-57.82,71.32-93.63,4.65-5.58,5.11-16.74,13.63-18.6,7.76,8.52-4,19.23-1.86,28.52a126.28,126.28,0,0,0,19.23-24.8c6.66-13.95,14.33-23.26,20.07-37.53,1.7-2,.08-4.17,1.63-4,1.4,16.74-7.92,38.53-10.25,53.11,20.68-12.06,17.54-56.68,23.27-82.88,4.81-1.7,6.67,2.64,8.69,5,.15-11.93,2.94-21.85-2.49-32.24-2.17-3.57-8.06-5-6.82-10.54C1128.07,413.84,1132.88,416,1136.28,415.39Z"/></g></svg>